<svg xmlns="http://www.w3.org/2000/svg" xmlns:xlink="http://www.w3.org/1999/xlink" width="400" zoomAndPan="magnify" viewBox="0 0 300 299.999988" height="400" preserveAspectRatio="xMidYMid meet" version="1.0"><defs><clipPath id="7caf00e50b"><path d="M 30.875 115 L 49 115 L 49 134 L 30.875 134 Z M 30.875 115 " clip-rule="nonzero"/></clipPath><clipPath id="c174536306"><path d="M 81 110.136719 L 102.875 110.136719 L 102.875 128 L 81 128 Z M 81 110.136719 " clip-rule="nonzero"/></clipPath><clipPath id="a782448924"><path d="M 31 164 L 99 164 L 99 171.636719 L 31 171.636719 Z M 31 164 " clip-rule="nonzero"/></clipPath><clipPath id="61da432c11"><path d="M 144.210938 226 L 156 226 L 156 232.71875 L 144.210938 232.71875 Z M 144.210938 226 " clip-rule="nonzero"/></clipPath><clipPath id="42bba85b63"><path d="M 102.234375 202.71875 L 198.078125 202.71875 L 198.078125 226.660156 L 102.234375 226.660156 Z M 102.234375 202.71875 " clip-rule="nonzero"/></clipPath><clipPath id="6cee3551bd"><path d="M 232 116.195312 L 261 116.195312 L 261 175 L 232 175 Z M 232 116.195312 " clip-rule="nonzero"/></clipPath><clipPath id="c5b9203789"><path d="M 231 116.195312 L 260 116.195312 L 260 173 L 231 173 Z M 231 116.195312 " clip-rule="nonzero"/></clipPath><clipPath id="c36a20b222"><path d="M 215 182 L 223 182 L 223 183.695312 L 215 183.695312 Z M 215 182 " clip-rule="nonzero"/></clipPath><clipPath id="8311b2d7b6"><path d="M 231 179 L 239 179 L 239 183.695312 L 231 183.695312 Z M 231 179 " clip-rule="nonzero"/></clipPath><clipPath id="09ce1f3e53"><path d="M 230 182 L 239 182 L 239 183.695312 L 230 183.695312 Z M 230 182 " clip-rule="nonzero"/></clipPath><clipPath id="f33a0f71dd"><path d="M 215 116.195312 L 224 116.195312 L 224 129 L 215 129 Z M 215 116.195312 " clip-rule="nonzero"/></clipPath><clipPath id="36d8a1824d"><path d="M 258 134 L 273.914062 134 L 273.914062 150 L 258 150 Z M 258 134 " clip-rule="nonzero"/></clipPath><clipPath id="8b332bb801"><path d="M 206.414062 149 L 222 149 L 222 164 L 206.414062 164 Z M 206.414062 149 " clip-rule="nonzero"/></clipPath><clipPath id="fc393931d4"><path d="M 152 72.585938 L 164 72.585938 L 164 84 L 152 84 Z M 152 72.585938 " clip-rule="nonzero"/></clipPath><clipPath id="e493d41962"><path d="M 145.542969 84 L 154 84 L 154 92 L 145.542969 92 Z M 145.542969 84 " clip-rule="nonzero"/></clipPath><clipPath id="6151f285fe"><path d="M 149 87 L 165 87 L 165 100.335938 L 149 100.335938 Z M 149 87 " clip-rule="nonzero"/></clipPath><clipPath id="a211dce74e"><path d="M 210 196 L 247 196 L 247 222 L 210 222 Z M 210 196 " clip-rule="nonzero"/></clipPath><clipPath id="ecb63cba93"><path d="M 208.699219 218.148438 L 244.363281 195.960938 L 251.492188 207.421875 L 215.832031 229.609375 Z M 208.699219 218.148438 " clip-rule="nonzero"/></clipPath><clipPath id="29ca9527e1"><path d="M 208.699219 218.148438 L 244.363281 195.960938 L 251.492188 207.421875 L 215.832031 229.609375 Z M 208.699219 218.148438 " clip-rule="nonzero"/></clipPath><clipPath id="9ad463521d"><path d="M 58 182 L 86 182 L 86 221 L 58 221 Z M 58 182 " clip-rule="nonzero"/></clipPath><clipPath id="67dbd12090"><path d="M 62.179688 179.804688 L 86.503906 217.664062 L 74.515625 225.367188 L 50.191406 187.507812 Z M 62.179688 179.804688 " clip-rule="nonzero"/></clipPath><clipPath id="2248e5f808"><path d="M 62.179688 179.804688 L 86.503906 217.664062 L 74.515625 225.367188 L 50.191406 187.507812 Z M 62.179688 179.804688 " clip-rule="nonzero"/></clipPath><clipPath id="1725a7bffa"><path d="M 83 75 L 125 75 L 125 97 L 83 97 Z M 83 75 " clip-rule="nonzero"/></clipPath><clipPath id="2e96f1f425"><path d="M 125.851562 81.085938 L 83.777344 97.050781 L 78.722656 83.726562 L 120.792969 67.761719 Z M 125.851562 81.085938 " clip-rule="nonzero"/></clipPath><clipPath id="472b7808aa"><path d="M 125.851562 81.085938 L 83.777344 97.050781 L 78.722656 83.726562 L 120.792969 67.761719 Z M 125.851562 81.085938 " clip-rule="nonzero"/></clipPath><clipPath id="9726f09bfb"><path d="M 194 79 L 236 79 L 236 103 L 194 103 Z M 194 79 " clip-rule="nonzero"/></clipPath><clipPath id="18570b3a1f"><path d="M 234.316406 106.027344 L 193.273438 87.570312 L 199.121094 74.574219 L 240.160156 93.03125 Z M 234.316406 106.027344 " clip-rule="nonzero"/></clipPath><clipPath id="1a01c69600"><path d="M 234.316406 106.027344 L 193.273438 87.570312 L 199.121094 74.574219 L 240.160156 93.03125 Z M 234.316406 106.027344 " clip-rule="nonzero"/></clipPath></defs><g clip-path="url(#7caf00e50b)"><path fill="#a855bf" d="M 39.640625 133.570312 C 34.804688 133.570312 30.867188 129.621094 30.867188 124.769531 C 30.867188 119.914062 34.804688 115.964844 39.640625 115.964844 C 44.480469 115.964844 48.417969 119.914062 48.417969 124.769531 C 48.417969 129.621094 44.480469 133.570312 39.640625 133.570312 Z M 39.640625 117.597656 C 35.703125 117.597656 32.496094 120.8125 32.496094 124.765625 C 32.496094 128.71875 35.703125 131.9375 39.640625 131.9375 C 43.582031 131.9375 46.789062 128.71875 46.789062 124.765625 C 46.789062 120.8125 43.582031 117.597656 39.640625 117.597656 Z M 39.640625 117.597656 " fill-opacity="1" fill-rule="nonzero"/></g><path fill="#a855bf" d="M 39.640625 129.398438 C 38.144531 129.398438 36.925781 128.175781 36.925781 126.675781 C 36.925781 126.222656 37.292969 125.855469 37.742188 125.855469 C 38.191406 125.855469 38.554688 126.222656 38.554688 126.675781 C 38.554688 127.277344 39.042969 127.765625 39.640625 127.765625 C 40.242188 127.765625 40.730469 127.277344 40.730469 126.675781 C 40.730469 126.074219 40.242188 125.582031 39.640625 125.582031 C 38.144531 125.582031 36.925781 124.359375 36.925781 122.859375 C 36.925781 121.355469 38.144531 120.132812 39.640625 120.132812 C 41.140625 120.132812 42.359375 121.355469 42.359375 122.859375 C 42.359375 123.308594 41.992188 123.675781 41.542969 123.675781 C 41.09375 123.675781 40.730469 123.308594 40.730469 122.859375 C 40.730469 122.257812 40.242188 121.769531 39.640625 121.769531 C 39.042969 121.769531 38.554688 122.257812 38.554688 122.859375 C 38.554688 123.460938 39.042969 123.949219 39.640625 123.949219 C 41.140625 123.949219 42.359375 125.171875 42.359375 126.675781 C 42.359375 128.175781 41.140625 129.398438 39.640625 129.398438 Z M 39.640625 129.398438 " fill-opacity="1" fill-rule="nonzero"/><path fill="#a855bf" d="M 39.640625 121.773438 C 39.191406 121.773438 38.828125 121.40625 38.828125 120.953125 L 38.828125 119.8125 C 38.828125 119.363281 39.191406 118.996094 39.640625 118.996094 C 40.09375 118.996094 40.457031 119.363281 40.457031 119.8125 L 40.457031 120.953125 C 40.457031 121.40625 40.09375 121.773438 39.640625 121.773438 Z M 39.640625 121.773438 " fill-opacity="1" fill-rule="nonzero"/><path fill="#a855bf" d="M 39.640625 130.542969 C 39.191406 130.542969 38.828125 130.175781 38.828125 129.722656 L 38.828125 128.582031 C 38.828125 128.132812 39.191406 127.765625 39.640625 127.765625 C 40.09375 127.765625 40.457031 128.132812 40.457031 128.582031 L 40.457031 129.722656 C 40.457031 130.175781 40.09375 130.542969 39.640625 130.542969 Z M 39.640625 130.542969 " fill-opacity="1" fill-rule="nonzero"/><path fill="#a855bf" d="M 51.941406 148.621094 C 51.65625 148.621094 51.382812 148.472656 51.234375 148.210938 L 45.609375 138.4375 C 45.503906 138.25 45.472656 138.027344 45.53125 137.816406 C 45.585938 137.609375 45.722656 137.429688 45.910156 137.320312 L 51.730469 133.949219 C 51.917969 133.839844 52.136719 133.8125 52.347656 133.867188 C 52.554688 133.921875 52.734375 134.058594 52.84375 134.246094 L 58.464844 144.023438 C 58.691406 144.414062 58.554688 144.914062 58.167969 145.136719 L 52.347656 148.511719 C 52.21875 148.585938 52.078125 148.621094 51.941406 148.621094 Z M 47.429688 138.328125 L 52.238281 146.6875 L 56.648438 144.132812 L 51.839844 135.773438 Z M 47.429688 138.328125 " fill-opacity="1" fill-rule="nonzero"/><path fill="#a855bf" d="M 57.757812 145.25 C 57.367188 145.25 57.023438 144.96875 56.957031 144.570312 C 56.878906 144.125 57.179688 143.703125 57.621094 143.625 L 83.078125 139.21875 C 83.523438 139.140625 83.941406 139.441406 84.019531 139.886719 C 84.09375 140.328125 83.796875 140.753906 83.355469 140.828125 L 57.898438 145.238281 C 57.851562 145.246094 57.804688 145.25 57.757812 145.25 Z M 52.136719 135.472656 C 51.949219 135.472656 51.765625 135.414062 51.613281 135.285156 C 51.269531 134.996094 51.222656 134.480469 51.507812 134.132812 L 68.042969 114.214844 C 68.332031 113.871094 68.84375 113.824219 69.1875 114.113281 C 69.535156 114.402344 69.582031 114.917969 69.292969 115.261719 L 52.761719 135.179688 C 52.597656 135.375 52.367188 135.472656 52.136719 135.472656 Z M 52.136719 135.472656 " fill-opacity="1" fill-rule="nonzero"/><path fill="#a855bf" d="M 78.75 141.613281 C 78.46875 141.613281 78.195312 141.46875 78.046875 141.207031 L 65.0625 118.644531 C 64.839844 118.253906 64.972656 117.753906 65.363281 117.527344 C 65.75 117.300781 66.25 117.433594 66.476562 117.824219 L 79.457031 140.386719 C 79.679688 140.777344 79.546875 141.277344 79.15625 141.503906 C 79.027344 141.578125 78.886719 141.613281 78.75 141.613281 Z M 78.75 141.613281 " fill-opacity="1" fill-rule="nonzero"/><path fill="#a855bf" d="M 59.070312 156.058594 C 58.085938 156.058594 57.101562 155.511719 56.554688 154.554688 L 52.484375 147.484375 C 52.261719 147.09375 52.394531 146.59375 52.785156 146.371094 C 53.171875 146.144531 53.671875 146.277344 53.894531 146.667969 L 57.964844 153.738281 C 58.308594 154.339844 59.039062 154.59375 59.554688 154.292969 C 60.070312 153.996094 60.214844 153.234375 59.867188 152.632812 L 55.800781 145.566406 C 55.574219 145.175781 55.707031 144.675781 56.097656 144.449219 C 56.488281 144.222656 56.984375 144.355469 57.210938 144.746094 L 61.277344 151.816406 C 62.078125 153.207031 61.671875 154.957031 60.367188 155.710938 C 59.964844 155.945312 59.515625 156.058594 59.070312 156.058594 Z M 59.070312 156.058594 " fill-opacity="1" fill-rule="nonzero"/><path fill="#a855bf" d="M 47.753906 147.714844 C 47.453125 147.714844 47.144531 147.667969 46.839844 147.574219 C 46.0625 147.328125 45.40625 146.792969 44.992188 146.066406 L 44.339844 144.9375 C 43.460938 143.410156 43.90625 141.496094 45.332031 140.671875 L 47.210938 139.582031 C 47.601562 139.355469 48.097656 139.492188 48.324219 139.882812 C 48.546875 140.273438 48.414062 140.773438 48.023438 140.996094 L 46.148438 142.085938 C 45.5 142.460938 45.324219 143.371094 45.75 144.117188 L 46.402344 145.25 C 46.613281 145.621094 46.945312 145.890625 47.328125 146.015625 C 47.691406 146.128906 48.054688 146.097656 48.351562 145.921875 L 50.230469 144.835938 C 50.617188 144.609375 51.117188 144.742188 51.339844 145.132812 C 51.566406 145.523438 51.433594 146.023438 51.042969 146.25 L 49.164062 147.339844 C 48.730469 147.589844 48.25 147.714844 47.753906 147.714844 Z M 47.753906 147.714844 " fill-opacity="1" fill-rule="nonzero"/><path fill="#a855bf" d="M 83.214844 140.839844 C 83.144531 140.839844 83.074219 140.832031 83.003906 140.8125 C 82.796875 140.757812 82.621094 140.621094 82.511719 140.433594 L 67.964844 115.148438 C 67.855469 114.960938 67.828125 114.738281 67.882812 114.527344 C 67.9375 114.320312 68.074219 114.140625 68.261719 114.03125 L 69.679688 113.210938 C 70.246094 112.882812 70.90625 112.796875 71.539062 112.964844 C 72.175781 113.136719 72.703125 113.542969 73.03125 114.109375 L 85.9375 136.546875 C 86.265625 137.117188 86.351562 137.78125 86.183594 138.414062 C 86.011719 139.050781 85.605469 139.582031 85.042969 139.910156 L 83.621094 140.730469 C 83.496094 140.804688 83.355469 140.839844 83.214844 140.839844 Z M 69.78125 115.039062 L 83.511719 138.90625 L 84.226562 138.492188 C 84.414062 138.382812 84.550781 138.207031 84.605469 137.992188 C 84.664062 137.777344 84.636719 137.554688 84.527344 137.367188 L 71.617188 114.925781 C 71.507812 114.738281 71.332031 114.601562 71.117188 114.546875 C 70.902344 114.488281 70.683594 114.515625 70.492188 114.625 Z M 69.78125 115.039062 " fill-opacity="1" fill-rule="nonzero"/><path fill="#a855bf" d="M 53.257812 144.167969 C 52.976562 144.167969 52.703125 144.023438 52.550781 143.761719 L 50.113281 139.519531 C 49.886719 139.128906 50.019531 138.628906 50.410156 138.402344 C 50.800781 138.179688 51.296875 138.3125 51.523438 138.703125 L 53.960938 142.941406 C 54.1875 143.332031 54.054688 143.832031 53.664062 144.058594 C 53.535156 144.132812 53.394531 144.167969 53.257812 144.167969 Z M 53.257812 144.167969 " fill-opacity="1" fill-rule="nonzero"/><g clip-path="url(#c174536306)"><path fill="#a855bf" d="M 97.574219 127.839844 L 86.449219 127.839844 C 83.527344 127.839844 81.152344 125.457031 81.152344 122.527344 L 81.152344 115.476562 C 81.152344 112.546875 83.527344 110.164062 86.449219 110.164062 L 97.574219 110.164062 C 100.492188 110.164062 102.867188 112.546875 102.867188 115.476562 L 102.867188 122.527344 C 102.867188 125.457031 100.492188 127.839844 97.574219 127.839844 Z M 86.449219 111.796875 C 84.425781 111.796875 82.78125 113.449219 82.78125 115.476562 L 82.78125 122.527344 C 82.78125 124.554688 84.425781 126.203125 86.449219 126.203125 L 97.574219 126.203125 C 99.597656 126.203125 101.238281 124.554688 101.238281 122.527344 L 101.238281 115.476562 C 101.238281 113.449219 99.597656 111.800781 97.574219 111.800781 L 86.449219 111.800781 Z M 86.449219 111.796875 " fill-opacity="1" fill-rule="nonzero"/></g><path fill="#a855bf" d="M 91.167969 120.703125 C 90.960938 120.703125 90.75 120.664062 90.546875 120.570312 C 90.203125 120.410156 89.773438 120.039062 89.675781 119.1875 C 89.664062 119.101562 89.660156 119.003906 89.664062 118.90625 L 89.664062 114.648438 C 89.636719 113.988281 89.9375 113.410156 90.480469 113.101562 C 91.085938 112.761719 91.859375 112.816406 92.492188 113.253906 L 95.605469 115.386719 C 96.054688 115.695312 96.320312 116.226562 96.316406 116.804688 C 96.316406 117.355469 96.0625 117.855469 95.636719 118.144531 L 92.667969 120.15625 C 92.257812 120.429688 91.71875 120.703125 91.167969 120.703125 Z M 91.292969 114.519531 C 91.292969 114.53125 91.289062 114.554688 91.292969 114.582031 C 91.292969 114.597656 91.292969 114.613281 91.292969 114.628906 L 91.292969 118.925781 C 91.292969 118.941406 91.292969 118.957031 91.292969 118.972656 C 91.292969 118.980469 91.292969 118.984375 91.292969 118.992188 C 91.292969 119.007812 91.296875 119.023438 91.296875 119.035156 C 91.40625 119 91.5625 118.925781 91.753906 118.796875 L 94.6875 116.8125 C 94.691406 116.785156 94.683594 116.746094 94.671875 116.726562 L 91.574219 114.601562 C 91.445312 114.511719 91.335938 114.507812 91.292969 114.519531 Z M 91.292969 114.519531 " fill-opacity="1" fill-rule="nonzero"/><path fill="#a855bf" d="M 97.765625 124.148438 L 90.457031 124.148438 C 90.007812 124.148438 89.640625 123.785156 89.640625 123.332031 C 89.640625 122.882812 90.007812 122.515625 90.457031 122.515625 L 97.765625 122.515625 C 98.214844 122.515625 98.582031 122.882812 98.582031 123.332031 C 98.582031 123.785156 98.214844 124.148438 97.765625 124.148438 Z M 87.894531 124.148438 L 86.253906 124.148438 C 85.804688 124.148438 85.4375 123.785156 85.4375 123.332031 C 85.4375 122.882812 85.804688 122.515625 86.253906 122.515625 L 87.894531 122.515625 C 88.34375 122.515625 88.707031 122.882812 88.707031 123.332031 C 88.707031 123.785156 88.34375 124.148438 87.894531 124.148438 Z M 87.894531 124.148438 " fill-opacity="1" fill-rule="nonzero"/><path fill="#a855bf" d="M 89.175781 125.433594 C 88.019531 125.433594 87.082031 124.492188 87.082031 123.332031 C 87.082031 122.171875 88.019531 121.230469 89.175781 121.230469 C 90.332031 121.230469 91.269531 122.171875 91.269531 123.332031 C 91.269531 124.492188 90.332031 125.433594 89.175781 125.433594 Z M 89.175781 122.863281 C 88.917969 122.863281 88.710938 123.074219 88.710938 123.332031 C 88.710938 123.589844 88.921875 123.796875 89.175781 123.796875 C 89.433594 123.796875 89.640625 123.589844 89.640625 123.332031 C 89.640625 123.074219 89.433594 122.863281 89.175781 122.863281 Z M 89.175781 122.863281 " fill-opacity="1" fill-rule="nonzero"/><g clip-path="url(#a782448924)"><path fill="#a855bf" d="M 92.414062 171.589844 L 37.738281 171.589844 C 34.363281 171.589844 31.621094 168.832031 31.621094 165.445312 C 31.621094 164.726562 32.203125 164.144531 32.917969 164.144531 L 97.238281 164.144531 C 97.953125 164.144531 98.535156 164.726562 98.535156 165.445312 C 98.539062 168.832031 95.792969 171.589844 92.414062 171.589844 Z M 33.261719 165.777344 C 33.429688 168.109375 35.375 169.953125 37.738281 169.953125 L 92.414062 169.953125 C 94.78125 169.953125 96.722656 168.109375 96.894531 165.777344 Z M 97.238281 165.777344 Z M 97.238281 165.777344 " fill-opacity="1" fill-rule="nonzero"/></g><path fill="#a855bf" d="M 90.828125 165.777344 L 39.328125 165.777344 C 36.84375 165.777344 34.824219 163.75 34.824219 161.257812 L 34.824219 131.671875 C 34.824219 131.21875 35.1875 130.855469 35.636719 130.855469 C 36.085938 130.855469 36.453125 131.21875 36.453125 131.671875 L 36.453125 161.257812 C 36.453125 162.847656 37.742188 164.144531 39.328125 164.144531 L 90.824219 164.144531 C 92.414062 164.144531 93.703125 162.847656 93.703125 161.257812 L 93.703125 127.023438 C 93.703125 126.574219 94.066406 126.207031 94.515625 126.207031 C 94.96875 126.207031 95.332031 126.574219 95.332031 127.023438 L 95.332031 161.257812 C 95.332031 163.75 93.3125 165.777344 90.828125 165.777344 Z M 81.96875 121.566406 L 75.90625 121.566406 C 75.457031 121.566406 75.09375 121.199219 75.09375 120.75 C 75.09375 120.296875 75.457031 119.929688 75.90625 119.929688 L 81.96875 119.929688 C 82.417969 119.929688 82.78125 120.296875 82.78125 120.75 C 82.78125 121.199219 82.417969 121.566406 81.96875 121.566406 Z M 63.679688 121.566406 L 46.523438 121.566406 C 46.074219 121.566406 45.707031 121.199219 45.707031 120.75 C 45.707031 120.296875 46.074219 119.929688 46.523438 119.929688 L 63.679688 119.929688 C 64.128906 119.929688 64.496094 120.296875 64.496094 120.75 C 64.496094 121.199219 64.128906 121.566406 63.679688 121.566406 Z M 63.679688 121.566406 " fill-opacity="1" fill-rule="nonzero"/><path fill="#a855bf" d="M 90.511719 161.757812 L 39.640625 161.757812 C 39.191406 161.757812 38.828125 161.394531 38.828125 160.941406 L 38.828125 132.753906 C 38.828125 132.304688 39.191406 131.9375 39.640625 131.9375 C 40.09375 131.9375 40.457031 132.304688 40.457031 132.753906 L 40.457031 160.125 L 89.695312 160.125 L 89.695312 127.023438 C 89.695312 126.574219 90.0625 126.207031 90.511719 126.207031 C 90.960938 126.207031 91.324219 126.574219 91.324219 127.023438 L 91.324219 160.941406 C 91.324219 161.394531 90.964844 161.757812 90.511719 161.757812 Z M 82.566406 125.585938 L 78.222656 125.585938 C 77.773438 125.585938 77.40625 125.21875 77.40625 124.769531 C 77.40625 124.316406 77.773438 123.949219 78.222656 123.949219 L 82.566406 123.949219 C 83.015625 123.949219 83.382812 124.316406 83.382812 124.769531 C 83.382812 125.21875 83.015625 125.585938 82.566406 125.585938 Z M 60.34375 125.585938 L 47.601562 125.585938 C 47.152344 125.585938 46.789062 125.21875 46.789062 124.769531 C 46.789062 124.316406 47.152344 123.949219 47.601562 123.949219 L 60.34375 123.949219 C 60.792969 123.949219 61.15625 124.316406 61.15625 124.769531 C 61.15625 125.21875 60.792969 125.585938 60.34375 125.585938 Z M 60.34375 125.585938 " fill-opacity="1" fill-rule="nonzero"/><g clip-path="url(#61da432c11)"><path fill="#a855bf" d="M 150.15625 232.730469 L 144.367188 226.035156 L 155.949219 226.035156 Z M 150.15625 232.730469 " fill-opacity="1" fill-rule="nonzero"/></g><g clip-path="url(#42bba85b63)"><path fill="#a855bf" d="M 192.554688 202.71875 L 107.757812 202.71875 C 104.707031 202.71875 102.234375 205.203125 102.234375 208.265625 L 102.234375 221.082031 C 102.234375 224.144531 104.707031 226.628906 107.757812 226.628906 L 192.554688 226.628906 C 195.605469 226.628906 198.078125 224.144531 198.078125 221.082031 L 198.078125 208.265625 C 198.078125 205.203125 195.605469 202.71875 192.554688 202.71875 " fill-opacity="1" fill-rule="nonzero"/></g><path fill="#ffffff" d="M 114.449219 211.097656 C 111.8125 208.933594 109.195312 211.328125 109.476562 213.488281 C 109.882812 216.609375 114.449219 219.097656 114.449219 219.097656 C 114.449219 219.097656 119.011719 216.609375 119.421875 213.488281 C 119.703125 211.328125 117.085938 208.933594 114.449219 211.097656 " fill-opacity="1" fill-rule="nonzero"/><path fill="#ffffff" d="M 123.789062 211.890625 C 123.773438 211.910156 123.554688 211.964844 123.125 212.042969 C 122.699219 212.125 122.40625 212.179688 122.246094 212.207031 L 122.246094 211.320312 C 123.136719 211.105469 123.746094 210.785156 124.074219 210.351562 L 124.957031 210.351562 L 124.957031 219.246094 L 123.789062 219.246094 L 123.789062 211.890625 " fill-opacity="1" fill-rule="nonzero"/><path fill="#ffffff" d="M 129.453125 215.796875 L 129.453125 211.847656 L 128.085938 215.796875 Z M 129.453125 216.90625 L 126.90625 216.90625 L 126.90625 215.601562 L 129.179688 210.351562 L 130.632812 210.351562 L 130.632812 215.796875 L 131.617188 215.796875 L 131.617188 216.90625 L 130.632812 216.90625 L 130.632812 219.246094 L 129.453125 219.246094 L 129.453125 216.90625 " fill-opacity="1" fill-rule="nonzero"/><path fill="#ffffff" d="M 132.285156 218.410156 L 134.539062 214.886719 C 134.648438 214.710938 134.71875 214.601562 134.757812 214.558594 C 135.011719 214.148438 135.199219 213.808594 135.316406 213.535156 C 135.429688 213.265625 135.488281 212.941406 135.488281 212.558594 C 135.488281 212.132812 135.417969 211.808594 135.28125 211.582031 C 135.144531 211.355469 134.917969 211.242188 134.605469 211.242188 C 133.902344 211.242188 133.554688 211.789062 133.554688 212.878906 L 133.554688 213.175781 L 132.382812 213.175781 L 132.382812 212.867188 C 132.382812 212.03125 132.554688 211.390625 132.898438 210.945312 C 133.242188 210.5 133.789062 210.277344 134.550781 210.277344 C 135.25 210.277344 135.777344 210.476562 136.132812 210.875 C 136.492188 211.273438 136.671875 211.839844 136.671875 212.570312 C 136.671875 212.929688 136.628906 213.25 136.546875 213.53125 C 136.460938 213.8125 136.359375 214.054688 136.246094 214.261719 C 136.125 214.464844 135.945312 214.757812 135.695312 215.140625 L 133.664062 218.257812 L 136.460938 218.257812 L 136.460938 219.246094 L 132.285156 219.246094 L 132.285156 218.410156 " fill-opacity="1" fill-rule="nonzero"/><path fill="#ffffff" d="M 154.511719 218.746094 C 154.144531 218.347656 153.960938 217.785156 153.960938 217.0625 L 153.960938 216.765625 L 155.121094 216.765625 L 155.121094 216.960938 C 155.132812 217.417969 155.210938 217.765625 155.355469 218.003906 C 155.496094 218.246094 155.753906 218.367188 156.125 218.367188 C 156.519531 218.367188 156.789062 218.230469 156.929688 217.957031 C 157.070312 217.679688 157.140625 217.273438 157.140625 216.730469 C 157.140625 216.234375 157.050781 215.84375 156.867188 215.5625 C 156.6875 215.28125 156.390625 215.125 155.984375 215.097656 C 155.953125 215.089844 155.898438 215.085938 155.820312 215.085938 L 155.820312 213.910156 L 155.972656 213.910156 C 156.386719 213.894531 156.6875 213.785156 156.867188 213.582031 C 157.050781 213.375 157.140625 213.035156 157.140625 212.558594 C 157.140625 212.121094 157.070312 211.789062 156.925781 211.566406 C 156.777344 211.34375 156.515625 211.230469 156.136719 211.230469 C 155.757812 211.230469 155.496094 211.351562 155.355469 211.59375 C 155.210938 211.835938 155.132812 212.191406 155.121094 212.660156 L 155.121094 212.84375 L 153.960938 212.84375 L 153.960938 212.546875 C 153.960938 211.824219 154.144531 211.261719 154.511719 210.867188 C 154.882812 210.472656 155.421875 210.277344 156.136719 210.277344 C 156.851562 210.277344 157.390625 210.476562 157.761719 210.875 C 158.128906 211.273438 158.3125 211.835938 158.3125 212.558594 C 158.3125 213.078125 158.199219 213.503906 157.972656 213.832031 C 157.746094 214.164062 157.4375 214.386719 157.042969 214.503906 C 157.445312 214.628906 157.757812 214.878906 157.980469 215.261719 C 158.199219 215.640625 158.3125 216.132812 158.3125 216.730469 C 158.3125 217.558594 158.136719 218.203125 157.78125 218.660156 C 157.429688 219.117188 156.875 219.34375 156.125 219.34375 C 155.417969 219.34375 154.882812 219.144531 154.511719 218.746094 " fill-opacity="1" fill-rule="nonzero"/><path fill="#ffffff" d="M 161.296875 211.273438 L 158.925781 211.273438 L 158.925781 210.351562 L 162.46875 210.351562 L 162.46875 210.921875 L 160.828125 219.246094 L 159.699219 219.246094 L 161.296875 211.273438 " fill-opacity="1" fill-rule="nonzero"/><path fill="#ffffff" d="M 152.078125 213.945312 C 152.078125 211.902344 150.019531 210.25 147.480469 210.25 C 144.9375 210.25 142.878906 211.902344 142.878906 213.945312 C 142.878906 215.988281 144.9375 217.640625 147.480469 217.640625 C 147.585938 217.640625 147.6875 217.636719 147.789062 217.632812 L 150.335938 219.246094 L 150.101562 216.980469 C 151.296875 216.316406 152.078125 215.203125 152.078125 213.945312 " fill-opacity="1" fill-rule="nonzero"/><path fill="#ffffff" d="M 180.832031 218.996094 L 183.085938 215.46875 C 183.195312 215.292969 183.265625 215.183594 183.304688 215.140625 C 183.558594 214.730469 183.746094 214.390625 183.863281 214.121094 C 183.980469 213.847656 184.035156 213.523438 184.035156 213.144531 C 184.035156 212.71875 183.96875 212.394531 183.828125 212.164062 C 183.691406 211.9375 183.464844 211.824219 183.152344 211.824219 C 182.453125 211.824219 182.101562 212.371094 182.101562 213.460938 L 182.101562 213.757812 L 180.929688 213.757812 L 180.929688 213.449219 C 180.929688 212.617188 181.101562 211.976562 181.445312 211.527344 C 181.789062 211.082031 182.339844 210.859375 183.097656 210.859375 C 183.796875 210.859375 184.324219 211.058594 184.683594 211.457031 C 185.039062 211.855469 185.21875 212.421875 185.21875 213.152344 C 185.21875 213.511719 185.175781 213.832031 185.09375 214.113281 C 185.007812 214.394531 184.90625 214.640625 184.792969 214.84375 C 184.675781 215.050781 184.492188 215.34375 184.246094 215.722656 L 182.210938 218.839844 L 185.011719 218.839844 L 185.011719 219.828125 L 180.832031 219.828125 L 180.832031 218.996094 " fill-opacity="1" fill-rule="nonzero"/><path fill="#ffffff" d="M 188.28125 211.859375 L 185.90625 211.859375 L 185.90625 210.9375 L 189.449219 210.9375 L 189.449219 211.507812 L 187.808594 219.828125 L 186.683594 219.828125 L 188.28125 211.859375 " fill-opacity="1" fill-rule="nonzero"/><path fill="#ffffff" d="M 177.859375 219.828125 C 178.378906 219.828125 178.796875 219.40625 178.796875 218.886719 L 178.796875 218.253906 C 178.792969 217.597656 178.730469 216.480469 178.175781 215.960938 C 177.570312 215.414062 176.574219 215.195312 175.855469 214.964844 C 175.675781 215.113281 175.472656 215.234375 175.253906 215.328125 C 174.941406 215.460938 174.609375 215.527344 174.269531 215.527344 C 173.925781 215.527344 173.59375 215.460938 173.28125 215.328125 C 173.066406 215.234375 172.863281 215.113281 172.679688 214.964844 C 171.960938 215.195312 170.96875 215.414062 170.363281 215.960938 C 169.808594 216.480469 169.746094 217.597656 169.738281 218.253906 L 169.738281 218.886719 C 169.738281 219.40625 170.160156 219.828125 170.679688 219.828125 L 177.859375 219.828125 " fill-opacity="1" fill-rule="nonzero"/><path fill="#ffffff" d="M 174.269531 210.832031 C 173.179688 210.832031 172.296875 211.71875 172.296875 212.8125 C 172.296875 213.613281 172.769531 214.300781 173.445312 214.613281 C 173.699219 214.730469 173.976562 214.792969 174.269531 214.792969 C 174.5625 214.792969 174.839844 214.730469 175.089844 214.613281 C 175.769531 214.300781 176.242188 213.613281 176.242188 212.8125 C 176.242188 211.71875 175.359375 210.832031 174.269531 210.832031 " fill-opacity="1" fill-rule="nonzero"/><path fill="#000000" d="M 221.628906 140.761719 C 221.621094 140.761719 221.613281 140.757812 221.601562 140.757812 L 216.308594 138.933594 C 216.285156 138.925781 216.265625 138.90625 216.257812 138.882812 C 216.25 138.859375 216.253906 138.832031 216.265625 138.8125 L 219.375 134.15625 C 219.398438 134.117188 219.449219 134.105469 219.488281 134.132812 C 219.523438 134.15625 219.535156 134.207031 219.511719 134.246094 L 216.460938 138.816406 L 221.65625 140.601562 C 221.699219 140.617188 221.722656 140.664062 221.707031 140.707031 C 221.695312 140.738281 221.664062 140.761719 221.628906 140.761719 " fill-opacity="1" fill-rule="nonzero"/><path fill="#ffffff" d="M 217.179688 138.539062 C 217.425781 139.261719 217.035156 140.046875 216.316406 140.289062 C 215.59375 140.53125 214.808594 140.144531 214.566406 139.421875 C 214.324219 138.699219 214.710938 137.917969 215.433594 137.671875 C 216.15625 137.429688 216.9375 137.816406 217.179688 138.539062 " fill-opacity="1" fill-rule="nonzero"/><path fill="#000000" d="M 215.871094 137.683594 C 215.734375 137.683594 215.59375 137.703125 215.457031 137.75 C 214.78125 137.980469 214.414062 138.71875 214.644531 139.394531 C 214.871094 140.074219 215.609375 140.441406 216.289062 140.210938 C 216.96875 139.984375 217.332031 139.246094 217.105469 138.566406 C 216.921875 138.023438 216.414062 137.683594 215.871094 137.683594 Z M 215.875 140.441406 C 215.265625 140.441406 214.695312 140.058594 214.488281 139.449219 C 214.230469 138.683594 214.644531 137.855469 215.40625 137.597656 C 216.167969 137.339844 217 137.75 217.257812 138.515625 C 217.515625 139.277344 217.105469 140.109375 216.339844 140.367188 C 216.1875 140.417969 216.03125 140.441406 215.875 140.441406 " fill-opacity="1" fill-rule="nonzero"/><path fill="#ffffff" d="M 220.75 133.757812 C 220.992188 134.480469 220.605469 135.261719 219.882812 135.507812 C 219.160156 135.75 218.378906 135.363281 218.136719 134.640625 C 217.890625 133.917969 218.277344 133.136719 219 132.890625 C 219.722656 132.648438 220.507812 133.035156 220.75 133.757812 " fill-opacity="1" fill-rule="nonzero"/><path fill="#000000" d="M 219.441406 132.902344 C 219.304688 132.902344 219.164062 132.921875 219.027344 132.96875 C 218.347656 133.199219 217.984375 133.9375 218.210938 134.613281 C 218.441406 135.292969 219.179688 135.660156 219.859375 135.429688 C 220.535156 135.199219 220.902344 134.460938 220.671875 133.785156 C 220.492188 133.242188 219.984375 132.902344 219.441406 132.902344 Z M 219.445312 135.660156 C 218.835938 135.660156 218.265625 135.277344 218.058594 134.667969 C 217.800781 133.902344 218.210938 133.074219 218.976562 132.816406 C 219.738281 132.558594 220.570312 132.96875 220.828125 133.730469 C 221.085938 134.496094 220.671875 135.328125 219.910156 135.585938 C 219.753906 135.636719 219.597656 135.660156 219.445312 135.660156 " fill-opacity="1" fill-rule="nonzero"/><path fill="#ffffff" d="M 222.9375 140.238281 C 223.179688 140.960938 222.792969 141.742188 222.070312 141.988281 C 221.347656 142.230469 220.566406 141.84375 220.324219 141.121094 C 220.078125 140.398438 220.464844 139.617188 221.1875 139.371094 C 221.910156 139.128906 222.695312 139.515625 222.9375 140.238281 " fill-opacity="1" fill-rule="nonzero"/><path fill="#000000" d="M 221.628906 139.378906 C 221.492188 139.378906 221.351562 139.402344 221.214844 139.449219 C 220.535156 139.675781 220.171875 140.414062 220.398438 141.09375 C 220.511719 141.421875 220.742188 141.6875 221.054688 141.84375 C 221.363281 141.996094 221.714844 142.019531 222.046875 141.910156 C 222.375 141.796875 222.640625 141.566406 222.792969 141.253906 C 222.949219 140.945312 222.972656 140.59375 222.859375 140.261719 C 222.675781 139.722656 222.171875 139.378906 221.628906 139.378906 Z M 221.628906 142.140625 C 221.40625 142.140625 221.1875 142.089844 220.980469 141.988281 C 220.632812 141.816406 220.371094 141.515625 220.246094 141.148438 C 219.988281 140.382812 220.398438 139.550781 221.164062 139.292969 C 221.53125 139.167969 221.929688 139.195312 222.277344 139.371094 C 222.628906 139.542969 222.890625 139.84375 223.015625 140.210938 C 223.140625 140.582031 223.113281 140.976562 222.9375 141.328125 C 222.765625 141.675781 222.46875 141.9375 222.097656 142.0625 C 221.945312 142.117188 221.785156 142.140625 221.628906 142.140625 " fill-opacity="1" fill-rule="nonzero"/><g clip-path="url(#6cee3551bd)"><path fill="#000000" d="M 232.886719 148.425781 L 232.886719 120.683594 C 232.886719 119.292969 234.011719 118.164062 235.40625 118.164062 L 256.996094 116.582031 C 258.386719 116.582031 260.683594 119.292969 260.683594 120.683594 L 260.683594 172.019531 C 260.683594 173.410156 259.554688 174.539062 258.164062 174.539062 L 235.40625 174.539062 L 232.886719 148.425781 " fill-opacity="1" fill-rule="nonzero"/></g><g clip-path="url(#c5b9203789)"><path fill="#ffffff" d="M 231.261719 146.800781 L 231.261719 119.058594 C 231.261719 117.667969 232.386719 116.542969 233.78125 116.542969 L 256.539062 116.542969 C 257.929688 116.542969 259.058594 117.667969 259.058594 119.058594 L 259.058594 170.394531 C 259.058594 171.785156 257.929688 172.914062 256.539062 172.914062 L 233.78125 172.914062 L 231.261719 146.800781 " fill-opacity="1" fill-rule="nonzero"/><path fill="#000000" d="M 256.539062 172.996094 L 233.78125 172.996094 C 233.734375 172.996094 233.699219 172.960938 233.699219 172.914062 C 233.699219 172.871094 233.734375 172.832031 233.78125 172.832031 L 256.539062 172.832031 C 257.882812 172.832031 258.976562 171.738281 258.976562 170.394531 L 258.976562 119.058594 C 258.976562 117.714844 257.882812 116.621094 256.539062 116.621094 L 233.78125 116.621094 C 232.433594 116.621094 231.34375 117.714844 231.34375 119.058594 L 231.34375 146.800781 C 231.34375 146.847656 231.304688 146.882812 231.261719 146.882812 C 231.214844 146.882812 231.179688 146.847656 231.179688 146.800781 L 231.179688 119.058594 C 231.179688 117.625 232.347656 116.460938 233.78125 116.460938 L 256.539062 116.460938 C 257.972656 116.460938 259.140625 117.625 259.140625 119.058594 L 259.140625 170.394531 C 259.140625 171.828125 257.972656 172.996094 256.539062 172.996094 " fill-opacity="1" fill-rule="nonzero"/></g><path fill="#ffffff" d="M 256.996094 170.710938 L 233.324219 170.710938 L 233.324219 120.222656 L 256.996094 120.222656 L 256.996094 170.710938 " fill-opacity="1" fill-rule="nonzero"/><path fill="#000000" d="M 233.40625 170.628906 L 256.914062 170.628906 L 256.914062 120.304688 L 233.40625 120.304688 Z M 256.996094 170.792969 L 233.324219 170.792969 C 233.28125 170.792969 233.242188 170.757812 233.242188 170.710938 L 233.242188 120.222656 C 233.242188 120.179688 233.28125 120.144531 233.324219 120.144531 L 256.996094 120.144531 C 257.039062 120.144531 257.074219 120.179688 257.074219 120.222656 L 257.074219 170.710938 C 257.074219 170.757812 257.039062 170.792969 256.996094 170.792969 " fill-opacity="1" fill-rule="nonzero"/><path fill="#ffffff" d="M 245.644531 118.34375 C 245.644531 118.742188 245.324219 119.0625 244.929688 119.0625 C 244.535156 119.0625 244.214844 118.742188 244.214844 118.34375 C 244.214844 117.949219 244.535156 117.628906 244.929688 117.628906 C 245.324219 117.628906 245.644531 117.949219 245.644531 118.34375 " fill-opacity="1" fill-rule="nonzero"/><path fill="#000000" d="M 244.929688 117.710938 C 244.578125 117.710938 244.292969 117.996094 244.292969 118.34375 C 244.292969 118.695312 244.578125 118.980469 244.929688 118.980469 C 245.28125 118.980469 245.5625 118.695312 245.5625 118.34375 C 245.5625 117.996094 245.28125 117.710938 244.929688 117.710938 Z M 244.929688 119.140625 C 244.488281 119.140625 244.132812 118.785156 244.132812 118.34375 C 244.132812 117.90625 244.488281 117.546875 244.929688 117.546875 C 245.367188 117.546875 245.726562 117.90625 245.726562 118.34375 C 245.726562 118.785156 245.367188 119.140625 244.929688 119.140625 " fill-opacity="1" fill-rule="nonzero"/><path fill="#ffffff" d="M 247.871094 118.34375 C 247.871094 118.625 247.648438 118.851562 247.367188 118.851562 C 247.085938 118.851562 246.859375 118.625 246.859375 118.34375 C 246.859375 118.066406 247.085938 117.839844 247.367188 117.839844 C 247.648438 117.839844 247.871094 118.066406 247.871094 118.34375 " fill-opacity="1" fill-rule="nonzero"/><path fill="#000000" d="M 247.367188 117.917969 C 247.132812 117.917969 246.941406 118.109375 246.941406 118.34375 C 246.941406 118.578125 247.132812 118.769531 247.367188 118.769531 C 247.601562 118.769531 247.792969 118.578125 247.792969 118.34375 C 247.792969 118.109375 247.601562 117.917969 247.367188 117.917969 Z M 247.367188 118.933594 C 247.042969 118.933594 246.78125 118.667969 246.78125 118.34375 C 246.78125 118.019531 247.042969 117.757812 247.367188 117.757812 C 247.691406 117.757812 247.953125 118.019531 247.953125 118.34375 C 247.953125 118.667969 247.691406 118.933594 247.367188 118.933594 " fill-opacity="1" fill-rule="nonzero"/><path fill="#4ada85" d="M 245.160156 132.835938 L 235.800781 132.835938 L 235.800781 122.128906 L 245.160156 122.128906 L 245.160156 132.835938 " fill-opacity="1" fill-rule="nonzero"/><path fill="#000000" d="M 235.878906 146.125 L 245.078125 146.125 L 245.078125 135.582031 L 235.878906 135.582031 Z M 245.160156 146.289062 L 235.800781 146.289062 C 235.753906 146.289062 235.71875 146.25 235.71875 146.207031 L 235.71875 135.5 C 235.71875 135.457031 235.753906 135.417969 235.800781 135.417969 L 245.160156 135.417969 C 245.203125 135.417969 245.242188 135.457031 245.242188 135.5 L 245.242188 146.207031 C 245.242188 146.25 245.203125 146.289062 245.160156 146.289062 " fill-opacity="1" fill-rule="nonzero"/><path fill="#000000" d="M 235.882812 159.9375 L 245.078125 159.9375 L 245.078125 149.394531 L 235.882812 149.394531 Z M 245.160156 160.101562 L 235.800781 160.101562 C 235.753906 160.101562 235.71875 160.0625 235.71875 160.019531 L 235.71875 149.3125 C 235.71875 149.265625 235.753906 149.230469 235.800781 149.230469 L 245.160156 149.230469 C 245.203125 149.230469 245.242188 149.265625 245.242188 149.3125 L 245.242188 160.019531 C 245.242188 160.0625 245.203125 160.101562 245.160156 160.101562 " fill-opacity="1" fill-rule="nonzero"/><path fill="#000000" d="M 235.882812 170.628906 L 245.078125 170.628906 L 245.078125 163.207031 L 235.882812 163.207031 Z M 245.160156 170.792969 L 235.800781 170.792969 C 235.753906 170.792969 235.71875 170.757812 235.71875 170.710938 L 235.71875 163.125 C 235.71875 163.078125 235.753906 163.042969 235.800781 163.042969 L 245.160156 163.042969 C 245.203125 163.042969 245.242188 163.078125 245.242188 163.125 L 245.242188 170.710938 C 245.242188 170.757812 245.203125 170.792969 245.160156 170.792969 " fill-opacity="1" fill-rule="nonzero"/><path fill="#000000" d="M 255.359375 124.046875 L 247.660156 124.046875 C 247.617188 124.046875 247.578125 124.011719 247.578125 123.96875 C 247.578125 123.921875 247.617188 123.886719 247.660156 123.886719 L 255.359375 123.886719 C 255.40625 123.886719 255.441406 123.921875 255.441406 123.96875 C 255.441406 124.011719 255.40625 124.046875 255.359375 124.046875 " fill-opacity="1" fill-rule="nonzero"/><path fill="#000000" d="M 253.734375 125.671875 L 246.847656 125.671875 C 246.804688 125.671875 246.765625 125.636719 246.765625 125.59375 C 246.765625 125.546875 246.804688 125.511719 246.847656 125.511719 L 253.734375 125.511719 C 253.78125 125.511719 253.816406 125.546875 253.816406 125.59375 C 253.816406 125.636719 253.78125 125.671875 253.734375 125.671875 " fill-opacity="1" fill-rule="nonzero"/><path fill="#000000" d="M 253.734375 127.296875 L 246.847656 127.296875 C 246.804688 127.296875 246.765625 127.261719 246.765625 127.21875 C 246.765625 127.171875 246.804688 127.136719 246.847656 127.136719 L 253.734375 127.136719 C 253.78125 127.136719 253.816406 127.171875 253.816406 127.21875 C 253.816406 127.261719 253.78125 127.296875 253.734375 127.296875 " fill-opacity="1" fill-rule="nonzero"/><path fill="#000000" d="M 255.359375 128.921875 L 246.847656 128.921875 C 246.800781 128.921875 246.765625 128.886719 246.765625 128.84375 C 246.765625 128.796875 246.800781 128.761719 246.847656 128.761719 L 255.359375 128.761719 C 255.40625 128.761719 255.441406 128.796875 255.441406 128.84375 C 255.441406 128.886719 255.40625 128.921875 255.359375 128.921875 " fill-opacity="1" fill-rule="nonzero"/><path fill="#000000" d="M 255.359375 130.546875 L 246.847656 130.546875 C 246.804688 130.546875 246.765625 130.511719 246.765625 130.46875 C 246.765625 130.421875 246.804688 130.386719 246.847656 130.386719 L 255.359375 130.386719 C 255.40625 130.386719 255.441406 130.421875 255.441406 130.46875 C 255.441406 130.511719 255.40625 130.546875 255.359375 130.546875 " fill-opacity="1" fill-rule="nonzero"/><path fill="#000000" d="M 255.359375 137.046875 L 247.660156 137.046875 C 247.613281 137.046875 247.578125 137.011719 247.578125 136.96875 C 247.578125 136.921875 247.613281 136.886719 247.660156 136.886719 L 255.359375 136.886719 C 255.40625 136.886719 255.441406 136.921875 255.441406 136.96875 C 255.441406 137.011719 255.40625 137.046875 255.359375 137.046875 " fill-opacity="1" fill-rule="nonzero"/><path fill="#000000" d="M 253.734375 138.671875 L 246.847656 138.671875 C 246.804688 138.671875 246.765625 138.636719 246.765625 138.589844 C 246.765625 138.546875 246.804688 138.511719 246.847656 138.511719 L 253.734375 138.511719 C 253.78125 138.511719 253.816406 138.546875 253.816406 138.589844 C 253.816406 138.636719 253.78125 138.671875 253.734375 138.671875 " fill-opacity="1" fill-rule="nonzero"/><path fill="#000000" d="M 255.359375 140.296875 L 246.847656 140.296875 C 246.804688 140.296875 246.765625 140.261719 246.765625 140.214844 C 246.765625 140.171875 246.804688 140.136719 246.847656 140.136719 L 255.359375 140.136719 C 255.40625 140.136719 255.441406 140.171875 255.441406 140.214844 C 255.441406 140.261719 255.40625 140.296875 255.359375 140.296875 " fill-opacity="1" fill-rule="nonzero"/><path fill="#000000" d="M 253.734375 141.921875 L 246.847656 141.921875 C 246.804688 141.921875 246.765625 141.886719 246.765625 141.839844 C 246.765625 141.796875 246.804688 141.761719 246.847656 141.761719 L 253.734375 141.761719 C 253.78125 141.761719 253.816406 141.796875 253.816406 141.839844 C 253.816406 141.886719 253.78125 141.921875 253.734375 141.921875 " fill-opacity="1" fill-rule="nonzero"/><path fill="#000000" d="M 255.359375 143.546875 L 246.847656 143.546875 C 246.804688 143.546875 246.765625 143.511719 246.765625 143.464844 C 246.765625 143.421875 246.804688 143.386719 246.847656 143.386719 L 255.359375 143.386719 C 255.40625 143.386719 255.441406 143.421875 255.441406 143.464844 C 255.441406 143.511719 255.40625 143.546875 255.359375 143.546875 " fill-opacity="1" fill-rule="nonzero"/><path fill="#000000" d="M 253.734375 150.859375 L 247.660156 150.859375 C 247.613281 150.859375 247.578125 150.824219 247.578125 150.777344 C 247.578125 150.734375 247.613281 150.695312 247.660156 150.695312 L 253.734375 150.695312 C 253.78125 150.695312 253.816406 150.734375 253.816406 150.777344 C 253.816406 150.824219 253.78125 150.859375 253.734375 150.859375 " fill-opacity="1" fill-rule="nonzero"/><path fill="#000000" d="M 255.359375 152.484375 L 246.847656 152.484375 C 246.804688 152.484375 246.765625 152.449219 246.765625 152.402344 C 246.765625 152.359375 246.804688 152.324219 246.847656 152.324219 L 255.359375 152.324219 C 255.40625 152.324219 255.441406 152.359375 255.441406 152.402344 C 255.441406 152.449219 255.40625 152.484375 255.359375 152.484375 " fill-opacity="1" fill-rule="nonzero"/><path fill="#000000" d="M 253.734375 154.109375 L 246.847656 154.109375 C 246.804688 154.109375 246.765625 154.074219 246.765625 154.027344 C 246.765625 153.984375 246.804688 153.945312 246.847656 153.945312 L 253.734375 153.945312 C 253.78125 153.945312 253.816406 153.984375 253.816406 154.027344 C 253.816406 154.074219 253.78125 154.109375 253.734375 154.109375 " fill-opacity="1" fill-rule="nonzero"/><path fill="#000000" d="M 253.734375 155.734375 L 246.847656 155.734375 C 246.804688 155.734375 246.765625 155.699219 246.765625 155.652344 C 246.765625 155.609375 246.804688 155.570312 246.847656 155.570312 L 253.734375 155.570312 C 253.78125 155.570312 253.816406 155.609375 253.816406 155.652344 C 253.816406 155.699219 253.78125 155.734375 253.734375 155.734375 " fill-opacity="1" fill-rule="nonzero"/><path fill="#000000" d="M 255.359375 157.359375 L 246.847656 157.359375 C 246.804688 157.359375 246.765625 157.324219 246.765625 157.277344 C 246.765625 157.234375 246.804688 157.195312 246.847656 157.195312 L 255.359375 157.195312 C 255.40625 157.195312 255.441406 157.234375 255.441406 157.277344 C 255.441406 157.324219 255.40625 157.359375 255.359375 157.359375 " fill-opacity="1" fill-rule="nonzero"/><path fill="#000000" d="M 253.734375 164.671875 L 247.660156 164.671875 C 247.613281 164.671875 247.578125 164.636719 247.578125 164.589844 C 247.578125 164.546875 247.613281 164.507812 247.660156 164.507812 L 253.734375 164.507812 C 253.78125 164.507812 253.816406 164.546875 253.816406 164.589844 C 253.816406 164.636719 253.78125 164.671875 253.734375 164.671875 " fill-opacity="1" fill-rule="nonzero"/><path fill="#000000" d="M 255.359375 166.296875 L 246.847656 166.296875 C 246.804688 166.296875 246.765625 166.261719 246.765625 166.214844 C 246.765625 166.171875 246.804688 166.132812 246.847656 166.132812 L 255.359375 166.132812 C 255.40625 166.132812 255.441406 166.171875 255.441406 166.214844 C 255.441406 166.261719 255.40625 166.296875 255.359375 166.296875 " fill-opacity="1" fill-rule="nonzero"/><path fill="#000000" d="M 253.734375 167.921875 L 246.847656 167.921875 C 246.804688 167.921875 246.765625 167.886719 246.765625 167.839844 C 246.765625 167.796875 246.804688 167.757812 246.847656 167.757812 L 253.734375 167.757812 C 253.78125 167.757812 253.816406 167.796875 253.816406 167.839844 C 253.816406 167.886719 253.78125 167.921875 253.734375 167.921875 " fill-opacity="1" fill-rule="nonzero"/><path fill="#000000" d="M 255.359375 169.546875 L 246.847656 169.546875 C 246.804688 169.546875 246.765625 169.511719 246.765625 169.464844 C 246.765625 169.421875 246.804688 169.382812 246.847656 169.382812 L 255.359375 169.382812 C 255.40625 169.382812 255.441406 169.421875 255.441406 169.464844 C 255.441406 169.511719 255.40625 169.546875 255.359375 169.546875 " fill-opacity="1" fill-rule="nonzero"/><path fill="#fed101" d="M 222.070312 182.574219 L 215.738281 182.574219 L 218.519531 177.222656 L 222.996094 177.222656 L 222.070312 182.574219 " fill-opacity="1" fill-rule="nonzero"/><path fill="#000000" d="M 222.765625 178.558594 L 217.128906 179.898438 L 218.519531 177.222656 L 222.996094 177.222656 L 222.765625 178.558594 " fill-opacity="1" fill-rule="nonzero"/><g clip-path="url(#c36a20b222)"><path fill="#000000" d="M 222.511719 183.695312 L 221.3125 183.695312 L 220.796875 183.164062 L 220.285156 183.695312 L 217.867188 183.695312 L 217.324219 183.164062 L 216.761719 183.695312 L 215.074219 183.695312 L 215.300781 182.457031 L 222.285156 182.457031 L 222.511719 183.695312 " fill-opacity="1" fill-rule="nonzero"/></g><g clip-path="url(#8311b2d7b6)"><path fill="#fed101" d="M 238.070312 183.121094 C 238.09375 182.96875 238.105469 182.8125 238.105469 182.65625 C 238.105469 180.925781 236.703125 179.519531 234.96875 179.519531 C 233.238281 179.519531 231.835938 180.925781 231.835938 182.65625 C 231.835938 182.8125 231.847656 182.96875 231.867188 183.121094 L 238.070312 183.121094 " fill-opacity="1" fill-rule="nonzero"/></g><path fill="#fed101" d="M 237.53125 182.410156 L 230.886719 182.410156 L 231.699219 178.207031 L 235.09375 178.207031 L 237.53125 182.410156 " fill-opacity="1" fill-rule="nonzero"/><path fill="#000000" d="M 235.296875 178.558594 L 231.410156 179.707031 L 231.699219 178.207031 L 235.09375 178.207031 L 235.296875 178.558594 " fill-opacity="1" fill-rule="nonzero"/><path fill="#000000" d="M 236.578125 180.851562 C 236.550781 180.851562 236.523438 180.839844 236.507812 180.8125 L 235.875 179.714844 C 235.851562 179.675781 235.863281 179.628906 235.902344 179.605469 C 235.941406 179.582031 235.992188 179.59375 236.015625 179.632812 L 236.648438 180.730469 C 236.671875 180.769531 236.660156 180.820312 236.621094 180.839844 C 236.605469 180.847656 236.59375 180.851562 236.578125 180.851562 " fill-opacity="1" fill-rule="nonzero"/><g clip-path="url(#09ce1f3e53)"><path fill="#000000" d="M 238.472656 183.648438 L 237.191406 183.648438 L 236.648438 183.121094 L 236.097656 183.648438 L 233.523438 183.648438 L 232.945312 183.121094 L 232.347656 183.648438 L 230.550781 183.648438 L 230.792969 182.410156 L 238.230469 182.410156 L 238.472656 183.648438 " fill-opacity="1" fill-rule="nonzero"/></g><path fill="#8c7bff" d="M 237.75 156.179688 L 236.527344 147.289062 L 225.363281 147.289062 L 225.363281 153.269531 L 223.25 163.484375 L 217.253906 178.558594 L 223.257812 178.558594 L 227.0625 170.429688 C 228.769531 166.785156 229.933594 162.910156 230.523438 158.929688 L 231.183594 154.460938 L 232 163.285156 L 230.523438 178.558594 L 236.527344 178.558594 L 237.695312 170.546875 C 238.386719 165.785156 238.40625 160.945312 237.75 156.179688 " fill-opacity="1" fill-rule="nonzero"/><path fill="#000000" d="M 236.527344 178.640625 L 230.523438 178.640625 C 230.5 178.640625 230.480469 178.632812 230.464844 178.613281 C 230.449219 178.597656 230.441406 178.574219 230.445312 178.550781 L 231.917969 163.285156 L 231.105469 154.46875 C 231.101562 154.421875 231.132812 154.382812 231.179688 154.378906 C 231.222656 154.375 231.261719 154.40625 231.265625 154.453125 L 232.078125 163.277344 C 232.078125 163.28125 232.078125 163.289062 232.078125 163.292969 L 230.613281 178.480469 L 236.457031 178.480469 L 237.613281 170.535156 C 238.308594 165.777344 238.324219 160.953125 237.671875 156.191406 L 236.449219 147.300781 C 236.441406 147.253906 236.472656 147.214844 236.515625 147.207031 C 236.5625 147.203125 236.601562 147.234375 236.609375 147.277344 L 237.832031 156.167969 C 238.488281 160.945312 238.46875 165.785156 237.773438 170.558594 L 236.609375 178.570312 C 236.601562 178.613281 236.570312 178.640625 236.527344 178.640625 " fill-opacity="1" fill-rule="nonzero"/><path fill="#000000" d="M 232.6875 154.503906 L 228.898438 154.503906 C 228.851562 154.503906 228.816406 154.46875 228.816406 154.421875 C 228.816406 154.378906 228.851562 154.339844 228.898438 154.339844 L 232.6875 154.339844 C 232.734375 154.339844 232.769531 154.378906 232.769531 154.421875 C 232.769531 154.46875 232.734375 154.503906 232.6875 154.503906 " fill-opacity="1" fill-rule="nonzero"/><path fill="#6155ff" d="M 233.15625 153.164062 C 232.1875 153.164062 231.402344 152.378906 231.402344 151.410156 L 231.402344 149.367188 L 234.910156 149.367188 L 234.910156 151.410156 C 234.910156 152.378906 234.125 153.164062 233.15625 153.164062 " fill-opacity="1" fill-rule="nonzero"/><path fill="#000000" d="M 225.945312 164.6875 C 225.933594 164.6875 225.917969 164.6875 225.90625 164.679688 L 223.210938 163.148438 C 223.179688 163.128906 223.164062 163.089844 223.171875 163.054688 C 223.183594 163.015625 223.21875 162.992188 223.257812 162.996094 L 225.566406 163.132812 C 225.613281 163.136719 225.644531 163.175781 225.644531 163.21875 C 225.640625 163.265625 225.601562 163.296875 225.558594 163.296875 L 223.59375 163.179688 L 225.988281 164.539062 C 226.027344 164.558594 226.039062 164.609375 226.015625 164.648438 C 226.003906 164.675781 225.976562 164.6875 225.945312 164.6875 " fill-opacity="1" fill-rule="nonzero"/><path fill="#000000" d="M 233.535156 164.328125 C 233.519531 164.328125 233.507812 164.324219 233.492188 164.316406 L 231.957031 163.355469 C 231.925781 163.335938 231.910156 163.296875 231.921875 163.261719 C 231.929688 163.226562 231.960938 163.203125 232 163.203125 L 234.207031 163.203125 C 234.253906 163.203125 234.289062 163.238281 234.289062 163.285156 C 234.289062 163.328125 234.253906 163.367188 234.207031 163.367188 L 232.28125 163.367188 L 233.578125 164.179688 C 233.617188 164.203125 233.628906 164.253906 233.605469 164.292969 C 233.589844 164.316406 233.5625 164.328125 233.535156 164.328125 " fill-opacity="1" fill-rule="nonzero"/><path fill="#000000" d="M 225.363281 150.335938 L 225.363281 147.289062 L 236.523438 147.289062 Z M 225.363281 150.335938 " fill-opacity="1" fill-rule="nonzero"/><path fill="#fda4ff" d="M 240.203125 130.328125 L 239.421875 132.34375 L 239.238281 131.15625 L 239.425781 130.644531 C 239.53125 130.355469 239.847656 130.207031 240.136719 130.308594 L 240.203125 130.328125 " fill-opacity="1" fill-rule="nonzero"/><path fill="#fda4ff" d="M 243.222656 131.875 L 242.917969 134.175781 L 240.109375 135 L 239.285156 132.855469 C 239.0625 132.277344 239.058594 131.640625 239.273438 131.0625 L 239.402344 130.707031 L 243.222656 131.875 " fill-opacity="1" fill-rule="nonzero"/><path fill="#ffffff" d="M 238.261719 128.347656 C 238.261719 130.996094 236.113281 133.144531 233.464844 133.144531 C 230.816406 133.144531 228.667969 130.996094 228.667969 128.347656 C 228.667969 125.699219 230.816406 123.550781 233.464844 123.550781 C 236.113281 123.550781 238.261719 125.699219 238.261719 128.347656 " fill-opacity="1" fill-rule="nonzero"/><path fill="#1ec15f" d="M 233.464844 123.550781 C 233.421875 123.550781 233.378906 123.550781 233.339844 123.554688 L 233.339844 133.140625 C 233.378906 133.140625 233.421875 133.144531 233.464844 133.144531 C 236.113281 133.144531 238.261719 130.996094 238.261719 128.347656 C 238.261719 125.699219 236.113281 123.550781 233.464844 123.550781 " fill-opacity="1" fill-rule="nonzero"/><path fill="#000000" d="M 238.789062 130.960938 L 244.34375 133.226562 L 244.824219 132.054688 L 239.273438 129.792969 Z M 244.390625 133.414062 C 244.378906 133.414062 244.371094 133.410156 244.359375 133.40625 L 238.652344 131.078125 C 238.632812 131.070312 238.617188 131.054688 238.609375 131.035156 C 238.601562 131.015625 238.601562 130.992188 238.609375 130.972656 L 239.15625 129.65625 C 239.171875 129.613281 239.21875 129.59375 239.261719 129.609375 L 244.960938 131.9375 C 244.980469 131.945312 244.996094 131.960938 245.003906 131.980469 C 245.011719 132 245.011719 132.023438 245.003906 132.042969 L 244.464844 133.363281 C 244.453125 133.394531 244.421875 133.414062 244.390625 133.414062 " fill-opacity="1" fill-rule="nonzero"/><path fill="#000000" d="M 233.464844 123.632812 C 230.863281 123.632812 228.75 125.746094 228.75 128.347656 C 228.75 130.949219 230.863281 133.0625 233.464844 133.0625 C 236.0625 133.0625 238.179688 130.949219 238.179688 128.347656 C 238.179688 125.746094 236.0625 123.632812 233.464844 123.632812 Z M 233.464844 133.226562 C 230.773438 133.226562 228.585938 131.039062 228.585938 128.347656 C 228.585938 125.65625 230.773438 123.46875 233.464844 123.46875 C 236.152344 123.46875 238.34375 125.65625 238.34375 128.347656 C 238.34375 131.039062 236.152344 133.226562 233.464844 133.226562 " fill-opacity="1" fill-rule="nonzero"/><path fill="#000000" d="M 236.214844 131.179688 C 236.195312 131.179688 236.175781 131.171875 236.160156 131.15625 C 236.128906 131.125 236.128906 131.074219 236.160156 131.042969 C 236.738281 130.464844 237.109375 129.730469 237.230469 128.925781 C 237.238281 128.882812 237.28125 128.851562 237.324219 128.859375 C 237.367188 128.867188 237.398438 128.90625 237.390625 128.953125 C 237.265625 129.792969 236.878906 130.554688 236.273438 131.15625 C 236.257812 131.171875 236.238281 131.179688 236.214844 131.179688 " fill-opacity="1" fill-rule="nonzero"/><path fill="#000000" d="M 237.3125 127.835938 C 237.273438 127.835938 237.238281 127.808594 237.230469 127.769531 C 236.949219 125.925781 235.332031 124.535156 233.464844 124.535156 C 233.417969 124.535156 233.382812 124.5 233.382812 124.453125 C 233.382812 124.410156 233.417969 124.375 233.464844 124.375 C 235.410156 124.375 237.101562 125.824219 237.390625 127.742188 C 237.398438 127.789062 237.367188 127.828125 237.324219 127.835938 C 237.320312 127.835938 237.316406 127.835938 237.3125 127.835938 " fill-opacity="1" fill-rule="nonzero"/><path fill="#000000" d="M 238.765625 130.890625 C 238.753906 130.890625 238.746094 130.890625 238.734375 130.886719 L 237.796875 130.5 C 237.753906 130.484375 237.734375 130.4375 237.753906 130.394531 C 237.769531 130.351562 237.816406 130.332031 237.859375 130.351562 L 238.722656 130.703125 L 239.035156 129.9375 L 238.113281 129.558594 C 238.070312 129.542969 238.050781 129.492188 238.066406 129.453125 C 238.085938 129.410156 238.132812 129.390625 238.171875 129.410156 L 239.171875 129.820312 C 239.214844 129.835938 239.234375 129.882812 239.21875 129.925781 L 238.839844 130.839844 C 238.832031 130.863281 238.816406 130.878906 238.796875 130.886719 C 238.785156 130.890625 238.777344 130.890625 238.765625 130.890625 " fill-opacity="1" fill-rule="nonzero"/><path fill="#fda4ff" d="M 241.1875 129.945312 L 240.328125 132.289062 L 239.550781 132.003906 L 240.414062 129.660156 C 240.488281 129.453125 240.71875 129.347656 240.921875 129.425781 L 240.953125 129.4375 C 241.160156 129.511719 241.265625 129.738281 241.1875 129.945312 " fill-opacity="1" fill-rule="nonzero"/><path fill="#fda4ff" d="M 242.09375 129.875 L 241.1875 132.34375 L 240.410156 132.058594 L 241.320312 129.589844 C 241.394531 129.386719 241.625 129.277344 241.832031 129.355469 L 241.855469 129.363281 C 242.0625 129.441406 242.167969 129.671875 242.09375 129.875 " fill-opacity="1" fill-rule="nonzero"/><path fill="#fda4ff" d="M 243.640625 130.449219 L 242.75 132.878906 L 241.972656 132.59375 L 242.867188 130.164062 C 242.945312 129.957031 243.175781 129.847656 243.382812 129.925781 L 243.402344 129.933594 C 243.613281 130.011719 243.71875 130.242188 243.640625 130.449219 " fill-opacity="1" fill-rule="nonzero"/><path fill="#fda4ff" d="M 243.640625 132.238281 L 242.925781 134.160156 L 242.148438 133.875 L 243.355469 130.617188 L 243.636719 131.347656 C 243.746094 131.632812 243.746094 131.949219 243.640625 132.238281 " fill-opacity="1" fill-rule="nonzero"/><path fill="#fda4ff" d="M 242.53125 129.8125 L 242.574219 129.828125 C 242.777344 129.902344 242.871094 130.15625 242.78125 130.394531 L 241.910156 132.765625 L 241.136719 132.480469 L 242.007812 130.109375 C 242.09375 129.871094 242.332031 129.738281 242.53125 129.8125 " fill-opacity="1" fill-rule="nonzero"/><path fill="#000000" d="M 241.789062 130.789062 C 241.777344 130.789062 241.769531 130.789062 241.757812 130.785156 C 241.71875 130.769531 241.695312 130.722656 241.710938 130.679688 L 242.019531 129.847656 C 242.046875 129.769531 242.042969 129.683594 242.007812 129.605469 C 241.972656 129.527344 241.910156 129.46875 241.828125 129.441406 L 241.800781 129.429688 C 241.722656 129.402344 241.636719 129.40625 241.558594 129.441406 C 241.484375 129.476562 241.425781 129.539062 241.394531 129.621094 L 241.046875 130.566406 C 241.03125 130.605469 240.984375 130.628906 240.941406 130.613281 C 240.902344 130.597656 240.878906 130.550781 240.894531 130.507812 L 241.242188 129.5625 C 241.285156 129.441406 241.375 129.347656 241.492188 129.292969 C 241.609375 129.238281 241.738281 129.234375 241.859375 129.277344 L 241.886719 129.289062 C 242.003906 129.332031 242.101562 129.421875 242.15625 129.539062 C 242.210938 129.652344 242.214844 129.785156 242.171875 129.902344 L 241.863281 130.738281 C 241.851562 130.769531 241.820312 130.789062 241.789062 130.789062 " fill-opacity="1" fill-rule="nonzero"/><path fill="#000000" d="M 242.519531 131.199219 C 242.507812 131.199219 242.5 131.195312 242.488281 131.191406 C 242.449219 131.175781 242.425781 131.128906 242.441406 131.089844 L 242.730469 130.300781 C 242.757812 130.222656 242.753906 130.140625 242.722656 130.066406 C 242.6875 129.992188 242.625 129.933594 242.546875 129.90625 L 242.503906 129.890625 C 242.425781 129.859375 242.34375 129.863281 242.269531 129.898438 C 242.195312 129.933594 242.136719 129.996094 242.109375 130.074219 L 241.828125 130.832031 C 241.8125 130.875 241.765625 130.894531 241.726562 130.878906 C 241.683594 130.863281 241.660156 130.816406 241.675781 130.777344 L 241.957031 130.015625 C 242 129.898438 242.085938 129.804688 242.199219 129.75 C 242.3125 129.699219 242.441406 129.695312 242.5625 129.738281 L 242.601562 129.753906 C 242.722656 129.796875 242.816406 129.882812 242.867188 129.996094 C 242.921875 130.113281 242.925781 130.238281 242.882812 130.359375 L 242.59375 131.144531 C 242.582031 131.175781 242.550781 131.199219 242.519531 131.199219 " fill-opacity="1" fill-rule="nonzero"/><path fill="#fda4ff" d="M 242.953125 133.976562 L 242.871094 137.453125 L 239.875 136.496094 L 239.941406 132.867188 L 242.953125 133.976562 " fill-opacity="1" fill-rule="nonzero"/><path fill="#000000" d="M 242.925781 135.160156 L 242.871094 137.453125 L 239.871094 136.496094 L 239.890625 135.492188 L 241.753906 135.289062 L 242.925781 135.160156 " fill-opacity="1" fill-rule="nonzero"/><path fill="#000000" d="M 239.632812 131.871094 C 239.621094 131.871094 239.613281 131.867188 239.605469 131.863281 C 239.5625 131.847656 239.539062 131.800781 239.554688 131.761719 L 240.339844 129.632812 C 240.429688 129.382812 240.703125 129.257812 240.949219 129.347656 L 240.984375 129.359375 C 241.230469 129.449219 241.355469 129.726562 241.265625 129.972656 L 240.984375 130.734375 C 240.96875 130.777344 240.921875 130.796875 240.882812 130.78125 C 240.839844 130.765625 240.816406 130.71875 240.832031 130.675781 L 241.113281 129.914062 C 241.171875 129.753906 241.089844 129.570312 240.925781 129.511719 L 240.894531 129.5 C 240.730469 129.441406 240.550781 129.523438 240.492188 129.6875 L 239.707031 131.816406 C 239.695312 131.847656 239.664062 131.871094 239.632812 131.871094 " fill-opacity="1" fill-rule="nonzero"/><path fill="#000000" d="M 242.871094 137.535156 C 242.863281 137.535156 242.855469 137.53125 242.84375 137.53125 L 239.847656 136.574219 C 239.8125 136.5625 239.792969 136.53125 239.792969 136.492188 L 239.828125 134.496094 L 239.210938 132.882812 C 239.003906 132.347656 238.980469 131.75 239.140625 131.199219 C 239.152344 131.15625 239.199219 131.132812 239.242188 131.144531 C 239.285156 131.15625 239.308594 131.203125 239.296875 131.246094 C 239.144531 131.761719 239.167969 132.324219 239.363281 132.824219 L 239.988281 134.453125 C 239.992188 134.464844 239.992188 134.472656 239.992188 134.484375 L 239.957031 136.4375 L 242.792969 137.34375 L 242.867188 134.109375 C 242.871094 134.101562 242.871094 134.09375 242.875 134.082031 L 243.566406 132.210938 C 243.664062 131.941406 243.664062 131.644531 243.558594 131.375 L 243.398438 130.960938 C 243.390625 130.941406 243.390625 130.921875 243.398438 130.902344 L 243.566406 130.421875 C 243.625 130.253906 243.542969 130.070312 243.375 130.007812 L 243.355469 130 C 243.191406 129.941406 243.003906 130.027344 242.945312 130.191406 L 242.550781 131.265625 C 242.535156 131.308594 242.488281 131.328125 242.445312 131.3125 C 242.402344 131.296875 242.382812 131.25 242.398438 131.210938 L 242.792969 130.136719 C 242.882812 129.886719 243.160156 129.757812 243.410156 129.847656 L 243.433594 129.855469 C 243.683594 129.949219 243.808594 130.226562 243.71875 130.476562 L 243.5625 130.929688 L 243.710938 131.316406 C 243.828125 131.621094 243.832031 131.957031 243.71875 132.265625 L 243.03125 134.128906 L 242.953125 137.457031 C 242.949219 137.480469 242.9375 137.503906 242.917969 137.519531 C 242.902344 137.527344 242.886719 137.535156 242.871094 137.535156 " fill-opacity="1" fill-rule="nonzero"/><path fill="#fed101" d="M 241.40625 145.835938 C 239.988281 145.8125 238.859375 144.644531 238.882812 143.226562 L 238.988281 135.988281 L 244.140625 136 L 244.015625 143.316406 C 243.992188 144.734375 242.820312 145.863281 241.40625 145.835938 " fill-opacity="1" fill-rule="nonzero"/><path fill="#000000" d="M 241.40625 145.757812 C 242.066406 145.765625 242.699219 145.519531 243.175781 145.058594 C 243.652344 144.597656 243.921875 143.980469 243.933594 143.316406 L 244.058594 136.078125 L 239.066406 136.070312 L 238.964844 143.230469 C 238.941406 144.597656 240.035156 145.734375 241.40625 145.757812 Z M 241.449219 145.917969 C 241.433594 145.917969 241.417969 145.917969 241.402344 145.917969 C 239.945312 145.894531 238.777344 144.6875 238.800781 143.226562 L 238.90625 135.988281 C 238.90625 135.941406 238.941406 135.90625 238.988281 135.90625 L 244.140625 135.917969 C 244.164062 135.917969 244.183594 135.925781 244.199219 135.941406 C 244.214844 135.957031 244.222656 135.976562 244.222656 136 L 244.097656 143.316406 C 244.082031 144.027344 243.796875 144.683594 243.289062 145.175781 C 242.789062 145.65625 242.140625 145.917969 241.449219 145.917969 " fill-opacity="1" fill-rule="nonzero"/><path fill="#fed101" d="M 243.292969 141.484375 L 238.703125 136.894531 C 236.839844 135.03125 234.308594 133.984375 231.671875 133.984375 L 228.703125 133.984375 C 226.65625 133.984375 224.789062 135.15625 223.898438 137 L 221.636719 141.6875 C 221.015625 142.984375 221.390625 144.894531 222.6875 145.515625 C 223.5625 145.9375 224.296875 145.90625 225.109375 145.515625 L 224.851562 148.429688 L 236.933594 147.289062 L 236.253906 142.316406 L 239.664062 145.113281 L 243.292969 141.484375 " fill-opacity="1" fill-rule="nonzero"/><path fill="#000000" d="M 239.664062 145.195312 C 239.644531 145.195312 239.625 145.191406 239.609375 145.175781 L 234.128906 140.675781 C 234.09375 140.648438 234.089844 140.597656 234.117188 140.5625 C 234.144531 140.527344 234.195312 140.523438 234.230469 140.550781 L 239.714844 145.050781 C 239.75 145.082031 239.753906 145.132812 239.726562 145.167969 C 239.707031 145.1875 239.683594 145.195312 239.664062 145.195312 " fill-opacity="1" fill-rule="nonzero"/><path fill="#000000" d="M 243.292969 141.566406 C 243.269531 141.566406 243.25 141.558594 243.234375 141.542969 L 238.644531 136.953125 C 236.757812 135.0625 234.316406 134.0625 231.59375 134.0625 C 231.546875 134.0625 231.511719 134.027344 231.511719 133.984375 C 231.511719 133.9375 231.546875 133.902344 231.59375 133.902344 C 234.359375 133.902344 236.839844 134.917969 238.761719 136.835938 L 243.347656 141.429688 C 243.378906 141.460938 243.378906 141.511719 243.347656 141.542969 C 243.332031 141.558594 243.3125 141.566406 243.292969 141.566406 " fill-opacity="1" fill-rule="nonzero"/><path fill="#000000" d="M 225.121094 145.597656 C 225.121094 145.597656 225.117188 145.597656 225.113281 145.597656 C 225.070312 145.59375 225.039062 145.554688 225.042969 145.507812 L 225.761719 138.207031 C 225.769531 138.160156 225.808594 138.128906 225.851562 138.132812 C 225.898438 138.136719 225.929688 138.175781 225.925781 138.222656 L 225.203125 145.523438 C 225.199219 145.566406 225.164062 145.597656 225.121094 145.597656 " fill-opacity="1" fill-rule="nonzero"/><path fill="#000000" d="M 225.824219 138.433594 L 224.175781 145.804688 C 224.175781 145.804688 224.425781 145.78125 224.6875 145.695312 C 224.875 145.632812 225.109375 145.515625 225.109375 145.515625 L 225.824219 138.433594 " fill-opacity="1" fill-rule="nonzero"/><path fill="#fda4ff" d="M 232.589844 131.152344 C 232.589844 132.0625 232.648438 133.324219 231.738281 133.324219 C 230.828125 133.324219 229.292969 132.0625 229.292969 131.152344 C 229.292969 130.242188 230.03125 129.503906 230.941406 129.503906 C 231.851562 129.503906 232.589844 130.242188 232.589844 131.152344 " fill-opacity="1" fill-rule="nonzero"/><path fill="#000000" d="M 233.195312 130.75 C 232.941406 129.910156 232.164062 129.296875 231.242188 129.296875 C 230.324219 129.296875 229.574219 129.859375 229.34375 130.75 L 233.195312 130.75 " fill-opacity="1" fill-rule="nonzero"/><path fill="#fda4ff" d="M 231.53125 133.984375 L 229.625 133.984375 L 229.625 131.152344 L 231.53125 131.152344 L 231.53125 133.984375 " fill-opacity="1" fill-rule="nonzero"/><path fill="#000000" d="M 231.53125 134.09375 C 231.488281 134.09375 231.449219 134.058594 231.449219 134.011719 L 231.449219 132.417969 C 231.449219 132.371094 231.488281 132.335938 231.53125 132.335938 C 231.578125 132.335938 231.613281 132.371094 231.613281 132.417969 L 231.613281 134.011719 C 231.613281 134.058594 231.578125 134.09375 231.53125 134.09375 " fill-opacity="1" fill-rule="nonzero"/><path fill="#000000" d="M 262.398438 126.003906 C 262.371094 126.003906 262.34375 125.988281 262.328125 125.960938 L 259.628906 121.054688 C 259.617188 121.035156 259.617188 121.007812 259.625 120.984375 C 259.636719 120.960938 259.65625 120.945312 259.679688 120.9375 L 265.113281 119.578125 C 265.15625 119.566406 265.199219 119.589844 265.210938 119.636719 C 265.222656 119.679688 265.195312 119.722656 265.152344 119.734375 L 259.824219 121.070312 L 262.46875 125.882812 C 262.492188 125.921875 262.476562 125.972656 262.4375 125.996094 C 262.425781 126 262.410156 126.003906 262.398438 126.003906 " fill-opacity="1" fill-rule="nonzero"/><path fill="#ffffff" d="M 260.539062 121.351562 C 260.234375 122.046875 259.421875 122.367188 258.726562 122.0625 C 258.027344 121.757812 257.707031 120.945312 258.011719 120.246094 C 258.316406 119.546875 259.128906 119.230469 259.828125 119.535156 C 260.527344 119.839844 260.847656 120.652344 260.539062 121.351562 " fill-opacity="1" fill-rule="nonzero"/><path fill="#000000" d="M 260.539062 121.351562 L 260.542969 121.351562 Z M 259.277344 119.5 C 258.777344 119.5 258.296875 119.792969 258.085938 120.28125 C 257.945312 120.597656 257.941406 120.949219 258.066406 121.273438 C 258.195312 121.597656 258.4375 121.851562 258.757812 121.988281 C 259.074219 122.128906 259.425781 122.132812 259.75 122.007812 C 260.074219 121.882812 260.328125 121.636719 260.464844 121.316406 C 260.753906 120.660156 260.453125 119.894531 259.792969 119.609375 C 259.625 119.535156 259.449219 119.5 259.277344 119.5 Z M 259.277344 122.261719 C 259.078125 122.261719 258.878906 122.21875 258.691406 122.136719 C 258.332031 121.980469 258.058594 121.695312 257.914062 121.332031 C 257.773438 120.96875 257.78125 120.574219 257.9375 120.214844 C 258.257812 119.476562 259.121094 119.136719 259.859375 119.460938 C 260.597656 119.78125 260.9375 120.644531 260.617188 121.382812 C 260.460938 121.742188 260.171875 122.015625 259.808594 122.160156 C 259.636719 122.226562 259.457031 122.261719 259.277344 122.261719 " fill-opacity="1" fill-rule="nonzero"/><path fill="#ffffff" d="M 266.398438 120.207031 C 266.09375 120.90625 265.277344 121.226562 264.582031 120.917969 C 263.882812 120.617188 263.5625 119.800781 263.867188 119.101562 C 264.171875 118.40625 264.984375 118.085938 265.683594 118.390625 C 266.382812 118.695312 266.703125 119.507812 266.398438 120.207031 " fill-opacity="1" fill-rule="nonzero"/><path fill="#000000" d="M 265.132812 118.355469 C 264.972656 118.355469 264.8125 118.386719 264.65625 118.445312 C 264.335938 118.574219 264.078125 118.820312 263.941406 119.136719 C 263.65625 119.792969 263.957031 120.558594 264.613281 120.847656 C 265.269531 121.132812 266.035156 120.832031 266.324219 120.175781 C 266.460938 119.855469 266.46875 119.503906 266.339844 119.179688 C 266.214844 118.859375 265.96875 118.605469 265.652344 118.464844 C 265.484375 118.390625 265.308594 118.355469 265.132812 118.355469 Z M 265.128906 121.117188 C 264.9375 121.117188 264.738281 121.078125 264.546875 120.996094 C 263.808594 120.671875 263.46875 119.808594 263.792969 119.070312 C 263.949219 118.714844 264.234375 118.4375 264.597656 118.296875 C 264.960938 118.152344 265.359375 118.160156 265.714844 118.316406 C 266.074219 118.472656 266.347656 118.757812 266.492188 119.121094 C 266.632812 119.484375 266.628906 119.882812 266.472656 120.238281 C 266.230469 120.789062 265.695312 121.117188 265.128906 121.117188 " fill-opacity="1" fill-rule="nonzero"/><path fill="#ffffff" d="M 263.664062 126.476562 C 263.359375 127.175781 262.546875 127.492188 261.847656 127.1875 C 261.148438 126.882812 260.828125 126.070312 261.132812 125.371094 C 261.4375 124.671875 262.25 124.355469 262.949219 124.660156 C 263.648438 124.964844 263.96875 125.777344 263.664062 126.476562 " fill-opacity="1" fill-rule="nonzero"/><path fill="#000000" d="M 262.398438 124.625 C 262.238281 124.625 262.078125 124.65625 261.921875 124.714844 C 261.601562 124.84375 261.347656 125.085938 261.207031 125.40625 C 261.070312 125.722656 261.0625 126.074219 261.1875 126.398438 C 261.316406 126.722656 261.5625 126.976562 261.878906 127.113281 C 262.535156 127.402344 263.300781 127.097656 263.589844 126.441406 C 263.726562 126.125 263.734375 125.773438 263.605469 125.449219 C 263.480469 125.125 263.234375 124.871094 262.917969 124.734375 C 262.75 124.660156 262.574219 124.625 262.398438 124.625 Z M 262.394531 127.386719 C 262.203125 127.386719 262.003906 127.347656 261.8125 127.261719 C 261.457031 127.105469 261.179688 126.820312 261.039062 126.457031 C 260.894531 126.09375 260.902344 125.699219 261.058594 125.339844 C 261.214844 124.980469 261.5 124.707031 261.863281 124.5625 C 262.226562 124.421875 262.625 124.429688 262.984375 124.585938 C 263.339844 124.742188 263.617188 125.027344 263.757812 125.390625 C 263.902344 125.753906 263.894531 126.148438 263.738281 126.507812 L 263.664062 126.476562 L 263.738281 126.507812 C 263.496094 127.058594 262.960938 127.386719 262.394531 127.386719 " fill-opacity="1" fill-rule="nonzero"/><g clip-path="url(#f33a0f71dd)"><path fill="#000000" d="M 221.320312 128.324219 L 215.894531 123.191406 C 214.269531 120.925781 215.382812 117.734375 218.0625 116.964844 C 220.746094 116.195312 223.378906 118.3125 223.203125 121.097656 L 221.320312 128.324219 " fill-opacity="1" fill-rule="nonzero"/></g><path fill="#ffffff" d="M 221.539062 120.191406 C 221.914062 121.496094 221.160156 122.855469 219.859375 123.226562 C 218.558594 123.601562 217.199219 122.847656 216.824219 121.546875 C 216.453125 120.242188 217.203125 118.882812 218.507812 118.511719 C 219.808594 118.136719 221.167969 118.890625 221.539062 120.191406 " fill-opacity="1" fill-rule="nonzero"/><path fill="#4ada85" d="M 260.617188 168.023438 L 257.816406 161.101562 C 257.28125 158.363281 259.617188 155.921875 262.375 156.335938 C 265.132812 156.75 266.648438 159.773438 265.332031 162.230469 L 260.617188 168.023438 " fill-opacity="1" fill-rule="nonzero"/><path fill="#ffffff" d="M 264.195312 160.71875 C 263.996094 162.058594 262.746094 162.980469 261.40625 162.777344 C 260.066406 162.578125 259.144531 161.328125 259.347656 159.988281 C 259.546875 158.648438 260.796875 157.726562 262.136719 157.925781 C 263.476562 158.128906 264.398438 159.378906 264.195312 160.71875 " fill-opacity="1" fill-rule="nonzero"/><g clip-path="url(#36d8a1824d)"><path fill="#ffffff" d="M 270.226562 148.773438 L 265.886719 147.246094 L 263.03125 149.832031 L 262.410156 146.019531 L 258.148438 144.519531 L 261.734375 134.347656 L 273.8125 138.601562 L 270.226562 148.773438 " fill-opacity="1" fill-rule="nonzero"/><path fill="#000000" d="M 258.253906 144.46875 L 262.4375 145.941406 C 262.464844 145.953125 262.484375 145.976562 262.488281 146.007812 L 263.085938 149.671875 L 265.832031 147.183594 C 265.855469 147.164062 265.886719 147.15625 265.914062 147.167969 L 270.175781 148.671875 L 273.707031 138.652344 L 261.78125 134.449219 Z M 263.03125 149.914062 C 263.019531 149.914062 263.011719 149.914062 263.003906 149.910156 C 262.976562 149.898438 262.953125 149.875 262.949219 149.847656 L 262.335938 146.082031 L 258.121094 144.59375 C 258.101562 144.585938 258.085938 144.574219 258.078125 144.554688 C 258.066406 144.535156 258.066406 144.511719 258.074219 144.492188 L 261.65625 134.320312 C 261.671875 134.277344 261.71875 134.257812 261.761719 134.269531 L 273.835938 138.527344 C 273.878906 138.542969 273.902344 138.589844 273.886719 138.628906 L 270.304688 148.800781 C 270.289062 148.84375 270.242188 148.867188 270.199219 148.851562 L 265.90625 147.335938 L 263.085938 149.894531 C 263.070312 149.90625 263.050781 149.914062 263.03125 149.914062 " fill-opacity="1" fill-rule="nonzero"/></g><path fill="#fda4ff" d="M 268.535156 139.550781 C 267.800781 139.292969 267.011719 139.511719 266.511719 140.046875 C 266.460938 139.316406 265.984375 138.652344 265.25 138.394531 C 264.261719 138.046875 263.175781 138.5625 262.828125 139.554688 C 262.601562 140.195312 262.703125 140.679688 263.023438 141.457031 L 264.691406 145.222656 L 268.351562 143.335938 C 269.085938 142.929688 269.46875 142.617188 269.695312 141.972656 C 270.042969 140.984375 269.523438 139.898438 268.535156 139.550781 " fill-opacity="1" fill-rule="nonzero"/><g clip-path="url(#8b332bb801)"><path fill="#ffffff" d="M 221.515625 158.378906 L 217.558594 160.085938 L 217.238281 163.679688 L 214.390625 161.453125 L 210.507812 163.128906 L 206.503906 153.859375 L 217.511719 149.109375 L 221.515625 158.378906 " fill-opacity="1" fill-rule="nonzero"/><path fill="#000000" d="M 214.390625 161.371094 C 214.40625 161.371094 214.425781 161.378906 214.4375 161.390625 L 217.171875 163.527344 L 217.476562 160.078125 C 217.480469 160.050781 217.496094 160.023438 217.523438 160.011719 L 221.40625 158.335938 L 217.46875 149.214844 L 206.613281 153.902344 L 210.550781 163.023438 L 214.355469 161.378906 C 214.367188 161.375 214.378906 161.371094 214.390625 161.371094 Z M 217.238281 163.761719 C 217.222656 163.761719 217.203125 163.757812 217.191406 163.746094 L 214.378906 161.546875 L 210.539062 163.203125 C 210.496094 163.222656 210.449219 163.203125 210.433594 163.164062 L 206.429688 153.890625 C 206.421875 153.871094 206.421875 153.851562 206.429688 153.832031 C 206.4375 153.8125 206.453125 153.792969 206.472656 153.785156 L 217.480469 149.035156 C 217.523438 149.015625 217.570312 149.035156 217.585938 149.078125 L 221.589844 158.347656 C 221.597656 158.367188 221.597656 158.390625 221.589844 158.410156 C 221.582031 158.429688 221.566406 158.445312 221.546875 158.453125 L 217.632812 160.140625 L 217.320312 163.6875 C 217.316406 163.71875 217.300781 163.746094 217.273438 163.757812 C 217.261719 163.761719 217.25 163.761719 217.238281 163.761719 " fill-opacity="1" fill-rule="nonzero"/></g><path fill="#fed101" d="M 214.488281 153.113281 C 213.816406 153.402344 213.417969 154.054688 213.414062 154.742188 C 212.914062 154.273438 212.164062 154.117188 211.496094 154.40625 C 210.59375 154.796875 210.179688 155.839844 210.566406 156.742188 C 210.820312 157.328125 211.199219 157.597656 211.910156 157.929688 L 215.449219 159.457031 L 216.765625 155.832031 C 217.011719 155.085938 217.078125 154.628906 216.824219 154.042969 C 216.433594 153.140625 215.390625 152.726562 214.488281 153.113281 " fill-opacity="1" fill-rule="nonzero"/><g clip-path="url(#fc393931d4)"><path fill="#a855bf" d="M 157.863281 72.585938 C 154.777344 72.585938 152.296875 75.085938 152.296875 78.199219 C 152.296875 81.308594 154.777344 83.808594 157.863281 83.808594 C 160.953125 83.808594 163.433594 81.308594 163.433594 78.199219 C 163.433594 75.085938 160.953125 72.585938 157.863281 72.585938 Z M 158.066406 77.738281 C 158.875 78.148438 159.890625 78.65625 159.890625 79.730469 C 159.890625 80.699219 159.230469 81.464844 158.371094 81.71875 L 158.371094 82.277344 C 158.371094 82.585938 158.167969 82.789062 157.863281 82.789062 C 157.5625 82.789062 157.359375 82.585938 157.359375 82.277344 L 157.359375 81.71875 C 156.496094 81.515625 155.839844 80.699219 155.839844 79.730469 C 155.839844 79.421875 156.042969 79.21875 156.347656 79.21875 C 156.648438 79.21875 156.851562 79.421875 156.851562 79.730469 C 156.851562 80.289062 157.308594 80.75 157.863281 80.75 C 158.421875 80.75 158.875 80.289062 158.875 79.730469 C 158.875 79.320312 158.421875 79.066406 157.660156 78.65625 C 156.851562 78.25 155.839844 77.738281 155.839844 76.667969 C 155.839844 75.699219 156.496094 74.933594 157.359375 74.679688 L 157.359375 74.117188 C 157.359375 73.8125 157.5625 73.605469 157.863281 73.605469 C 158.167969 73.605469 158.371094 73.8125 158.371094 74.117188 L 158.371094 74.679688 C 159.230469 74.882812 159.890625 75.699219 159.890625 76.667969 C 159.890625 76.972656 159.6875 77.179688 159.382812 77.179688 C 159.078125 77.179688 158.875 76.972656 158.875 76.667969 C 158.875 76.105469 158.421875 75.648438 157.863281 75.648438 C 157.308594 75.648438 156.851562 76.105469 156.851562 76.667969 C 156.851562 77.074219 157.308594 77.332031 158.066406 77.738281 Z M 158.066406 77.738281 " fill-opacity="1" fill-rule="nonzero"/></g><g clip-path="url(#e493d41962)"><path fill="#a855bf" d="M 147.183594 91.359375 L 145.917969 89.777344 C 145.714844 89.523438 145.714844 89.214844 145.96875 89.0625 L 151.4375 84.523438 C 151.636719 84.320312 151.992188 84.371094 152.144531 84.574219 L 153.410156 86.15625 C 153.613281 86.359375 153.5625 86.71875 153.359375 86.871094 L 147.894531 91.410156 C 147.640625 91.5625 147.335938 91.5625 147.183594 91.359375 Z M 147.183594 91.359375 " fill-opacity="1" fill-rule="nonzero"/></g><g clip-path="url(#6151f285fe)"><path fill="#a855bf" d="M 164.242188 96.101562 L 161.203125 92.378906 L 159.585938 90.238281 L 157.511719 91.511719 L 157.460938 91.511719 C 157.207031 91.613281 157.003906 91.664062 156.75 91.664062 C 156.042969 91.664062 155.433594 91.257812 155.132812 90.59375 C 154.929688 90.136719 154.929688 89.675781 155.082031 89.214844 C 155.230469 88.757812 155.585938 88.453125 155.992188 88.246094 L 156.851562 87.738281 C 156.496094 87.585938 156.144531 87.480469 155.738281 87.429688 L 153.816406 87.125 C 153.765625 87.175781 153.714844 87.226562 153.664062 87.277344 L 149.207031 90.949219 C 149.410156 91.664062 149.714844 92.328125 149.96875 92.941406 L 150.222656 92.738281 C 150.421875 92.582031 150.675781 92.480469 150.980469 92.480469 C 151.386719 92.480469 151.738281 92.683594 151.992188 92.992188 C 152.195312 93.246094 152.296875 93.605469 152.246094 93.960938 C 152.246094 94.011719 152.195312 94.0625 152.195312 94.113281 C 152.601562 94.113281 152.953125 94.316406 153.207031 94.625 C 153.410156 94.878906 153.511719 95.234375 153.460938 95.59375 C 153.460938 95.644531 153.410156 95.695312 153.410156 95.746094 C 153.816406 95.746094 154.167969 95.949219 154.421875 96.257812 C 154.675781 96.613281 154.726562 97.019531 154.625 97.378906 C 155.03125 97.378906 155.382812 97.582031 155.636719 97.886719 C 156.042969 98.449219 155.941406 99.265625 155.382812 99.675781 L 154.980469 99.980469 C 155.332031 100.335938 155.890625 100.335938 156.296875 100.03125 C 156.75 99.675781 156.800781 99.011719 156.445312 98.601562 L 155.230469 97.125 L 155.636719 96.816406 L 157.460938 99.0625 C 157.8125 99.519531 158.472656 99.570312 158.875 99.214844 C 159.332031 98.859375 159.382812 98.195312 159.027344 97.785156 L 157.257812 95.542969 L 157.660156 95.234375 L 160.089844 98.246094 C 160.445312 98.703125 161.105469 98.753906 161.507812 98.398438 C 161.914062 98.042969 162.015625 97.378906 161.660156 96.96875 L 159.230469 94.011719 L 159.636719 93.707031 L 162.722656 97.480469 C 163.078125 97.941406 163.734375 97.992188 164.140625 97.632812 C 164.546875 97.175781 164.597656 96.5625 164.242188 96.101562 Z M 164.242188 96.101562 " fill-opacity="1" fill-rule="nonzero"/></g><path fill="#a855bf" d="M 164.089844 84.777344 L 165.8125 83.503906 C 166.015625 83.351562 166.265625 83.402344 166.417969 83.605469 L 170.722656 89.421875 C 170.871094 89.625 170.824219 89.878906 170.621094 90.03125 L 168.898438 91.308594 C 168.695312 91.460938 168.441406 91.410156 168.292969 91.207031 L 163.988281 85.339844 C 163.835938 85.1875 163.886719 84.878906 164.089844 84.777344 Z M 164.089844 84.777344 " fill-opacity="1" fill-rule="nonzero"/><path fill="#a855bf" d="M 167.886719 91.511719 L 163.734375 85.851562 C 161.054688 85.746094 158.976562 87.023438 158.976562 87.023438 L 156.195312 88.707031 C 155.535156 89.011719 155.28125 89.777344 155.585938 90.390625 C 155.890625 91.054688 156.648438 91.308594 157.257812 91.003906 L 160.039062 89.320312 L 164.34375 95.03125 C 166.214844 93.859375 167.429688 92.378906 168.039062 91.613281 C 167.9375 91.613281 167.886719 91.5625 167.886719 91.511719 Z M 167.886719 91.511719 " fill-opacity="1" fill-rule="nonzero"/><path fill="#a855bf" d="M 150.121094 94.726562 L 149.816406 94.316406 C 149.664062 94.113281 149.714844 93.757812 149.917969 93.605469 L 150.523438 93.144531 C 150.878906 92.890625 151.335938 92.941406 151.585938 93.296875 C 151.839844 93.65625 151.789062 94.113281 151.4375 94.367188 L 150.828125 94.828125 C 150.625 95.03125 150.324219 94.980469 150.121094 94.726562 Z M 150.121094 94.726562 " fill-opacity="1" fill-rule="nonzero"/><path fill="#a855bf" d="M 151.335938 96.410156 L 151.03125 96 C 150.878906 95.796875 150.929688 95.441406 151.132812 95.285156 L 151.738281 94.828125 C 152.09375 94.574219 152.550781 94.625 152.800781 94.980469 C 153.054688 95.339844 153.003906 95.796875 152.652344 96.050781 L 152.042969 96.511719 C 151.839844 96.664062 151.488281 96.613281 151.335938 96.410156 Z M 151.335938 96.410156 " fill-opacity="1" fill-rule="nonzero"/><path fill="#a855bf" d="M 152.550781 98.042969 L 152.246094 97.632812 C 152.09375 97.429688 152.144531 97.074219 152.347656 96.917969 L 152.953125 96.460938 C 153.308594 96.207031 153.765625 96.257812 154.015625 96.613281 C 154.269531 96.96875 154.21875 97.429688 153.867188 97.683594 L 153.257812 98.144531 C 153.003906 98.296875 152.703125 98.246094 152.550781 98.042969 Z M 152.550781 98.042969 " fill-opacity="1" fill-rule="nonzero"/><path fill="#a855bf" d="M 153.765625 99.675781 L 153.460938 99.265625 C 153.308594 99.0625 153.359375 98.703125 153.5625 98.550781 L 154.167969 98.09375 C 154.523438 97.835938 154.980469 97.886719 155.230469 98.246094 C 155.484375 98.601562 155.433594 99.0625 155.082031 99.316406 L 154.472656 99.777344 C 154.21875 99.929688 153.917969 99.878906 153.765625 99.675781 Z M 153.765625 99.675781 " fill-opacity="1" fill-rule="nonzero"/><g clip-path="url(#a211dce74e)"><g clip-path="url(#ecb63cba93)"><g clip-path="url(#29ca9527e1)"><path fill="#8c52ff" d="M 245.273438 199.367188 C 245.492188 199.988281 245.617188 200.65625 245.765625 201.269531 C 246.078125 202.570312 246.351562 203.882812 246.503906 205.210938 C 246.722656 207.089844 243.722656 207.347656 243.296875 205.59375 C 243.164062 205.035156 243.058594 204.464844 242.96875 203.894531 C 237.925781 215.867188 224.261719 224.21875 211.308594 221.222656 C 210.503906 221.035156 210.707031 219.828125 211.492188 219.824219 C 217.75 219.800781 224.035156 218.578125 229.363281 215.210938 C 234.28125 212.101562 237.75 207.558594 240.027344 202.300781 C 238.679688 202.84375 237.304688 203.328125 235.914062 203.730469 C 235.148438 203.949219 234.441406 202.847656 235.09375 202.308594 C 237.476562 200.332031 240.082031 198.621094 242.820312 197.179688 C 244.484375 196.304688 245.691406 198.113281 245.273438 199.367188 Z M 245.273438 199.367188 " fill-opacity="1" fill-rule="nonzero"/></g></g></g><g clip-path="url(#9ad463521d)"><g clip-path="url(#67dbd12090)"><g clip-path="url(#2248e5f808)"><path fill="#8c52ff" d="M 82.90625 218.65625 C 82.257812 218.894531 81.550781 219.035156 80.902344 219.199219 C 79.53125 219.542969 78.148438 219.84375 76.742188 220.019531 C 74.757812 220.265625 74.414062 217.070312 76.265625 216.601562 C 76.855469 216.453125 77.453125 216.339844 78.058594 216.238281 C 65.257812 210.960938 56.101562 196.460938 58.988281 182.621094 C 59.167969 181.757812 60.453125 181.964844 60.472656 182.804688 C 60.636719 189.476562 62.074219 196.171875 65.761719 201.824219 C 69.164062 207.042969 74.058594 210.703125 79.683594 213.085938 C 79.074219 211.652344 78.53125 210.195312 78.078125 208.710938 C 77.828125 207.898438 78.976562 207.136719 79.566406 207.828125 C 81.710938 210.351562 83.582031 213.113281 85.171875 216.023438 C 86.136719 217.789062 84.246094 219.09375 82.90625 218.65625 Z M 82.90625 218.65625 " fill-opacity="1" fill-rule="nonzero"/></g></g></g><g clip-path="url(#1725a7bffa)"><g clip-path="url(#2e96f1f425)"><g clip-path="url(#472b7808aa)"><path fill="#8c52ff" d="M 83.550781 93.328125 C 83.453125 92.640625 83.460938 91.921875 83.433594 91.253906 C 83.382812 89.839844 83.375 88.421875 83.492188 87.011719 C 83.664062 85.019531 86.859375 85.34375 86.933594 87.253906 C 86.957031 87.859375 86.945312 88.46875 86.917969 89.082031 C 94.730469 77.648438 110.8125 71.691406 123.753906 77.378906 C 124.558594 77.730469 124.089844 78.945312 123.269531 78.792969 C 116.707031 77.574219 109.859375 77.59375 103.5625 80.03125 C 97.757812 82.28125 93.164062 86.3125 89.667969 91.324219 C 91.195312 91.023438 92.734375 90.796875 94.28125 90.65625 C 95.125 90.582031 95.636719 91.863281 94.835938 92.296875 C 91.921875 93.875 88.832031 95.132812 85.65625 96.082031 C 83.730469 96.664062 82.847656 94.542969 83.550781 93.328125 Z M 83.550781 93.328125 " fill-opacity="1" fill-rule="nonzero"/></g></g></g><g clip-path="url(#9726f09bfb)"><g clip-path="url(#18570b3a1f)"><g clip-path="url(#1a01c69600)"><path fill="#8c52ff" d="M 195.746094 84.78125 C 196.164062 84.222656 196.679688 83.722656 197.132812 83.230469 C 198.09375 82.195312 199.089844 81.1875 200.171875 80.273438 C 201.699219 78.984375 203.730469 81.472656 202.433594 82.875 C 202.023438 83.320312 201.582031 83.746094 201.132812 84.160156 C 214.738281 81.597656 230.324219 88.753906 235.457031 101.925781 C 235.773438 102.746094 234.585938 103.273438 234.109375 102.582031 C 230.332031 97.078125 225.472656 92.253906 219.300781 89.527344 C 213.601562 87.011719 207.503906 86.617188 201.488281 87.6875 C 202.78125 88.554688 204.03125 89.480469 205.222656 90.476562 C 205.875 91.019531 205.328125 92.289062 204.457031 92.03125 C 201.28125 91.085938 198.207031 89.789062 195.289062 88.21875 C 193.515625 87.265625 194.386719 85.144531 195.746094 84.78125 Z M 195.746094 84.78125 " fill-opacity="1" fill-rule="nonzero"/></g></g></g></svg>